<svg width="360" height="408" viewBox="0 0 360 408" fill="none" xmlns="http://www.w3.org/2000/svg">
<rect x="17" y="1" width="326" height="350" rx="19" fill="url(#paint0_linear_1_9069)"/>
<rect x="17" y="1" width="326" height="350" rx="19" stroke="url(#paint1_linear_1_9069)" stroke-width="2"/>
<circle cx="60" cy="44" r="24" fill="url(#paint2_linear_1_9069)"/>
<circle cx="60" cy="44" r="23" stroke="url(#paint3_linear_1_9069)" stroke-opacity="0.32" stroke-width="2"/>
<path d="M65.9531 49.3633V52H54.2812V49.75L59.8008 43.832C60.3555 43.2148 60.793 42.6719 61.1133 42.2031C61.4336 41.7266 61.6641 41.3008 61.8047 40.9258C61.9531 40.543 62.0273 40.1797 62.0273 39.8359C62.0273 39.3203 61.9414 38.8789 61.7695 38.5117C61.5977 38.1367 61.3438 37.8477 61.0078 37.6445C60.6797 37.4414 60.2734 37.3398 59.7891 37.3398C59.2734 37.3398 58.8281 37.4648 58.4531 37.7148C58.0859 37.9648 57.8047 38.3125 57.6094 38.7578C57.4219 39.2031 57.3281 39.707 57.3281 40.2695H53.9414C53.9414 39.2539 54.1836 38.3242 54.668 37.4805C55.1523 36.6289 55.8359 35.9531 56.7188 35.4531C57.6016 34.9453 58.6484 34.6914 59.8594 34.6914C61.0547 34.6914 62.0625 34.8867 62.8828 35.2773C63.7109 35.6602 64.3359 36.2148 64.7578 36.9414C65.1875 37.6602 65.4023 38.5195 65.4023 39.5195C65.4023 40.082 65.3125 40.6328 65.1328 41.1719C64.9531 41.7031 64.6953 42.2344 64.3594 42.7656C64.0312 43.2891 63.6328 43.8203 63.1641 44.3594C62.6953 44.8984 62.1758 45.457 61.6055 46.0352L58.6406 49.3633H65.9531Z" fill="white"/>
<path d="M106.807 33.9316H103.184V31.6465H106.807C107.367 31.6465 107.822 31.5553 108.174 31.373C108.525 31.1842 108.783 30.9238 108.945 30.5918C109.108 30.2598 109.189 29.8854 109.189 29.4688C109.189 29.0456 109.108 28.6517 108.945 28.2871C108.783 27.9225 108.525 27.6296 108.174 27.4082C107.822 27.1868 107.367 27.0762 106.807 27.0762H104.199V39H101.27V24.7812H106.807C107.92 24.7812 108.874 24.9831 109.668 25.3867C110.469 25.7839 111.081 26.334 111.504 27.0371C111.927 27.7402 112.139 28.5443 112.139 29.4492C112.139 30.3672 111.927 31.1615 111.504 31.832C111.081 32.5026 110.469 33.0202 109.668 33.3848C108.874 33.7493 107.92 33.9316 106.807 33.9316ZM119.57 36.6172V31.9102C119.57 31.5716 119.515 31.2819 119.404 31.041C119.294 30.7936 119.121 30.6016 118.887 30.4648C118.659 30.3281 118.363 30.2598 117.998 30.2598C117.686 30.2598 117.415 30.3151 117.188 30.4258C116.96 30.5299 116.784 30.6829 116.66 30.8848C116.536 31.0801 116.475 31.3112 116.475 31.5781H113.662C113.662 31.1289 113.766 30.7025 113.975 30.2988C114.183 29.8952 114.486 29.5404 114.883 29.2344C115.28 28.9219 115.752 28.6777 116.299 28.502C116.852 28.3262 117.471 28.2383 118.154 28.2383C118.975 28.2383 119.704 28.375 120.342 28.6484C120.98 28.9219 121.481 29.332 121.846 29.8789C122.217 30.4258 122.402 31.1094 122.402 31.9297V36.4512C122.402 37.0306 122.438 37.5059 122.51 37.877C122.581 38.2415 122.686 38.5605 122.822 38.834V39H119.98C119.844 38.7135 119.74 38.3555 119.668 37.9258C119.603 37.4896 119.57 37.0534 119.57 36.6172ZM119.941 32.5645L119.961 34.1562H118.389C118.018 34.1562 117.695 34.1986 117.422 34.2832C117.148 34.3678 116.924 34.4883 116.748 34.6445C116.572 34.7943 116.442 34.9701 116.357 35.1719C116.279 35.3737 116.24 35.5951 116.24 35.8359C116.24 36.0768 116.296 36.2949 116.406 36.4902C116.517 36.679 116.676 36.8288 116.885 36.9395C117.093 37.0436 117.337 37.0957 117.617 37.0957C118.04 37.0957 118.408 37.0111 118.721 36.8418C119.033 36.6725 119.274 36.4642 119.443 36.2168C119.619 35.9694 119.71 35.735 119.717 35.5137L120.459 36.7051C120.355 36.972 120.212 37.2487 120.029 37.5352C119.854 37.8216 119.629 38.0918 119.355 38.3457C119.082 38.5931 118.753 38.7982 118.369 38.9609C117.985 39.1172 117.529 39.1953 117.002 39.1953C116.331 39.1953 115.723 39.0618 115.176 38.7949C114.635 38.5215 114.206 38.1471 113.887 37.6719C113.574 37.1901 113.418 36.6432 113.418 36.0312C113.418 35.4779 113.522 34.9863 113.73 34.5566C113.939 34.127 114.245 33.7656 114.648 33.4727C115.059 33.1732 115.57 32.9486 116.182 32.7988C116.794 32.6426 117.503 32.5645 118.311 32.5645H119.941ZM128.936 36.998C129.281 36.998 129.587 36.9329 129.854 36.8027C130.12 36.666 130.329 36.4772 130.479 36.2363C130.635 35.9889 130.716 35.6992 130.723 35.3672H133.369C133.363 36.1094 133.164 36.7702 132.773 37.3496C132.383 37.9225 131.859 38.375 131.201 38.707C130.544 39.0326 129.808 39.1953 128.994 39.1953C128.174 39.1953 127.458 39.0586 126.846 38.7852C126.24 38.5117 125.736 38.1341 125.332 37.6523C124.928 37.1641 124.626 36.5977 124.424 35.9531C124.222 35.3021 124.121 34.6055 124.121 33.8633V33.5801C124.121 32.8314 124.222 32.1348 124.424 31.4902C124.626 30.8392 124.928 30.2728 125.332 29.791C125.736 29.3027 126.24 28.9219 126.846 28.6484C127.451 28.375 128.161 28.2383 128.975 28.2383C129.84 28.2383 130.599 28.4043 131.25 28.7363C131.908 29.0684 132.422 29.5436 132.793 30.1621C133.171 30.7741 133.363 31.5 133.369 32.3398H130.723C130.716 31.9883 130.641 31.6693 130.498 31.3828C130.361 31.0964 130.16 30.8685 129.893 30.6992C129.632 30.5234 129.31 30.4355 128.926 30.4355C128.516 30.4355 128.18 30.5234 127.92 30.6992C127.66 30.8685 127.458 31.1029 127.314 31.4023C127.171 31.6953 127.07 32.0306 127.012 32.4082C126.96 32.7793 126.934 33.1699 126.934 33.5801V33.8633C126.934 34.2734 126.96 34.6673 127.012 35.0449C127.064 35.4225 127.161 35.7578 127.305 36.0508C127.454 36.3438 127.66 36.5749 127.92 36.7441C128.18 36.9134 128.519 36.998 128.936 36.998ZM139.365 36.998C139.71 36.998 140.016 36.9329 140.283 36.8027C140.55 36.666 140.758 36.4772 140.908 36.2363C141.064 35.9889 141.146 35.6992 141.152 35.3672H143.799C143.792 36.1094 143.594 36.7702 143.203 37.3496C142.812 37.9225 142.288 38.375 141.631 38.707C140.973 39.0326 140.238 39.1953 139.424 39.1953C138.604 39.1953 137.887 39.0586 137.275 38.7852C136.67 38.5117 136.165 38.1341 135.762 37.6523C135.358 37.1641 135.055 36.5977 134.854 35.9531C134.652 35.3021 134.551 34.6055 134.551 33.8633V33.5801C134.551 32.8314 134.652 32.1348 134.854 31.4902C135.055 30.8392 135.358 30.2728 135.762 29.791C136.165 29.3027 136.67 28.9219 137.275 28.6484C137.881 28.375 138.59 28.2383 139.404 28.2383C140.27 28.2383 141.029 28.4043 141.68 28.7363C142.337 29.0684 142.852 29.5436 143.223 30.1621C143.6 30.7741 143.792 31.5 143.799 32.3398H141.152C141.146 31.9883 141.071 31.6693 140.928 31.3828C140.791 31.0964 140.589 30.8685 140.322 30.6992C140.062 30.5234 139.74 30.4355 139.355 30.4355C138.945 30.4355 138.61 30.5234 138.35 30.6992C138.089 30.8685 137.887 31.1029 137.744 31.4023C137.601 31.6953 137.5 32.0306 137.441 32.4082C137.389 32.7793 137.363 33.1699 137.363 33.5801V33.8633C137.363 34.2734 137.389 34.6673 137.441 35.0449C137.493 35.4225 137.591 35.7578 137.734 36.0508C137.884 36.3438 138.089 36.5749 138.35 36.7441C138.61 36.9134 138.949 36.998 139.365 36.998ZM148.428 28.4336V39H145.615V28.4336H148.428ZM155.293 28.4336L150.742 35.0449H147.93L147.588 32.4473H149.453L151.729 28.4336H155.293ZM151.855 39L149.258 34.5371L151.709 33.1797L155.625 39H151.855ZM162.383 36.6172V31.9102C162.383 31.5716 162.327 31.2819 162.217 31.041C162.106 30.7936 161.934 30.6016 161.699 30.4648C161.471 30.3281 161.175 30.2598 160.811 30.2598C160.498 30.2598 160.228 30.3151 160 30.4258C159.772 30.5299 159.596 30.6829 159.473 30.8848C159.349 31.0801 159.287 31.3112 159.287 31.5781H156.475C156.475 31.1289 156.579 30.7025 156.787 30.2988C156.995 29.8952 157.298 29.5404 157.695 29.2344C158.092 28.9219 158.564 28.6777 159.111 28.502C159.665 28.3262 160.283 28.2383 160.967 28.2383C161.787 28.2383 162.516 28.375 163.154 28.6484C163.792 28.9219 164.294 29.332 164.658 29.8789C165.029 30.4258 165.215 31.1094 165.215 31.9297V36.4512C165.215 37.0306 165.251 37.5059 165.322 37.877C165.394 38.2415 165.498 38.5605 165.635 38.834V39H162.793C162.656 38.7135 162.552 38.3555 162.48 37.9258C162.415 37.4896 162.383 37.0534 162.383 36.6172ZM162.754 32.5645L162.773 34.1562H161.201C160.83 34.1562 160.508 34.1986 160.234 34.2832C159.961 34.3678 159.736 34.4883 159.561 34.6445C159.385 34.7943 159.255 34.9701 159.17 35.1719C159.092 35.3737 159.053 35.5951 159.053 35.8359C159.053 36.0768 159.108 36.2949 159.219 36.4902C159.329 36.679 159.489 36.8288 159.697 36.9395C159.906 37.0436 160.15 37.0957 160.43 37.0957C160.853 37.0957 161.221 37.0111 161.533 36.8418C161.846 36.6725 162.087 36.4642 162.256 36.2168C162.432 35.9694 162.523 35.735 162.529 35.5137L163.271 36.7051C163.167 36.972 163.024 37.2487 162.842 37.5352C162.666 37.8216 162.441 38.0918 162.168 38.3457C161.895 38.5931 161.566 38.7982 161.182 38.9609C160.798 39.1172 160.342 39.1953 159.814 39.1953C159.144 39.1953 158.535 39.0618 157.988 38.7949C157.448 38.5215 157.018 38.1471 156.699 37.6719C156.387 37.1901 156.23 36.6432 156.23 36.0312C156.23 35.4779 156.335 34.9863 156.543 34.5566C156.751 34.127 157.057 33.7656 157.461 33.4727C157.871 33.1732 158.382 32.9486 158.994 32.7988C159.606 32.6426 160.316 32.5645 161.123 32.5645H162.754ZM171.113 35.0156L166.719 28.4336H170.205L172.451 32.418H174.473L174.131 35.0156H171.113ZM172.49 34.5371L170.078 39H166.689L170.195 33.1797L172.49 34.5371ZM176.299 28.4336V39H173.486V28.4336H176.299ZM183.096 28.4336L178.701 35.0156H175.684L175.342 32.418H177.363L179.6 28.4336H183.096ZM179.727 39L177.314 34.5371L179.697 33.1797L183.184 39H179.727ZM187.354 35.0742L190.898 28.4336H193.711V39H190.898V32.3496L187.354 39H184.541V28.4336H187.354V35.0742ZM201.26 28.4336V39H198.438V28.4336H201.26ZM204.658 28.4336V30.6113H195.088V28.4336H204.658ZM210.273 39.1953C209.453 39.1953 208.717 39.0651 208.066 38.8047C207.415 38.5378 206.862 38.1699 206.406 37.7012C205.957 37.2324 205.612 36.6888 205.371 36.0703C205.13 35.4453 205.01 34.7812 205.01 34.0781V33.6875C205.01 32.8867 205.124 32.1543 205.352 31.4902C205.579 30.8262 205.905 30.25 206.328 29.7617C206.758 29.2734 207.279 28.8991 207.891 28.6387C208.503 28.3717 209.193 28.2383 209.961 28.2383C210.71 28.2383 211.374 28.362 211.953 28.6094C212.533 28.8568 213.018 29.2083 213.408 29.6641C213.805 30.1198 214.105 30.6667 214.307 31.3047C214.508 31.9362 214.609 32.6393 214.609 33.4141V34.5859H206.211V32.7109H211.846V32.4961C211.846 32.1055 211.774 31.7572 211.631 31.4512C211.494 31.1387 211.286 30.8913 211.006 30.709C210.726 30.5267 210.368 30.4355 209.932 30.4355C209.561 30.4355 209.242 30.5169 208.975 30.6797C208.708 30.8424 208.49 31.0703 208.32 31.3633C208.158 31.6562 208.034 32.0013 207.949 32.3984C207.871 32.7891 207.832 33.2188 207.832 33.6875V34.0781C207.832 34.5013 207.891 34.8919 208.008 35.25C208.132 35.6081 208.304 35.9173 208.525 36.1777C208.753 36.4382 209.027 36.64 209.346 36.7832C209.671 36.9264 210.039 36.998 210.449 36.998C210.957 36.998 211.429 36.9004 211.865 36.7051C212.308 36.5033 212.689 36.2005 213.008 35.7969L214.375 37.2812C214.154 37.6003 213.851 37.9062 213.467 38.1992C213.089 38.4922 212.633 38.7331 212.1 38.9219C211.566 39.1042 210.957 39.1953 210.273 39.1953ZM100.645 57.8242V57.6191C100.645 56.8444 100.755 56.1315 100.977 55.4805C101.198 54.8229 101.52 54.2533 101.943 53.7715C102.367 53.2897 102.887 52.9154 103.506 52.6484C104.124 52.375 104.834 52.2383 105.635 52.2383C106.436 52.2383 107.148 52.375 107.773 52.6484C108.398 52.9154 108.923 53.2897 109.346 53.7715C109.775 54.2533 110.101 54.8229 110.322 55.4805C110.544 56.1315 110.654 56.8444 110.654 57.6191V57.8242C110.654 58.5924 110.544 59.3053 110.322 59.9629C110.101 60.6139 109.775 61.1836 109.346 61.6719C108.923 62.1536 108.402 62.528 107.783 62.7949C107.165 63.0618 106.455 63.1953 105.654 63.1953C104.854 63.1953 104.141 63.0618 103.516 62.7949C102.897 62.528 102.373 62.1536 101.943 61.6719C101.52 61.1836 101.198 60.6139 100.977 59.9629C100.755 59.3053 100.645 58.5924 100.645 57.8242ZM103.457 57.6191V57.8242C103.457 58.2669 103.496 58.6803 103.574 59.0645C103.652 59.4486 103.776 59.7871 103.945 60.0801C104.121 60.3665 104.349 60.5911 104.629 60.7539C104.909 60.9167 105.251 60.998 105.654 60.998C106.045 60.998 106.38 60.9167 106.66 60.7539C106.94 60.5911 107.165 60.3665 107.334 60.0801C107.503 59.7871 107.627 59.4486 107.705 59.0645C107.79 58.6803 107.832 58.2669 107.832 57.8242V57.6191C107.832 57.1895 107.79 56.7858 107.705 56.4082C107.627 56.0241 107.5 55.6855 107.324 55.3926C107.155 55.0931 106.93 54.8587 106.65 54.6895C106.37 54.5202 106.032 54.4355 105.635 54.4355C105.238 54.4355 104.899 54.5202 104.619 54.6895C104.346 54.8587 104.121 55.0931 103.945 55.3926C103.776 55.6855 103.652 56.0241 103.574 56.4082C103.496 56.7858 103.457 57.1895 103.457 57.6191ZM120.654 48.7812V63H117.734V48.7812H120.654ZM126.514 48.7812V63H123.594V48.7812H126.514ZM132.373 48.7812V63H129.453V48.7812H132.373ZM138.232 48.7812V63H135.312V48.7812H138.232ZM140.938 61.6426C140.938 61.2259 141.081 60.8776 141.367 60.5977C141.66 60.3177 142.048 60.1777 142.529 60.1777C143.011 60.1777 143.395 60.3177 143.682 60.5977C143.975 60.8776 144.121 61.2259 144.121 61.6426C144.121 62.0592 143.975 62.4076 143.682 62.6875C143.395 62.9674 143.011 63.1074 142.529 63.1074C142.048 63.1074 141.66 62.9674 141.367 62.6875C141.081 62.4076 140.938 62.0592 140.938 61.6426ZM155.02 58.2832H157.939C157.881 59.2402 157.617 60.0898 157.148 60.832C156.686 61.5742 156.038 62.1536 155.205 62.5703C154.378 62.987 153.382 63.1953 152.217 63.1953C151.305 63.1953 150.488 63.0391 149.766 62.7266C149.043 62.4076 148.424 61.9518 147.91 61.3594C147.402 60.7669 147.015 60.0508 146.748 59.2109C146.481 58.3711 146.348 57.4303 146.348 56.3887V55.4023C146.348 54.3607 146.484 53.4199 146.758 52.5801C147.038 51.7337 147.435 51.0143 147.949 50.4219C148.47 49.8294 149.092 49.3737 149.814 49.0547C150.537 48.7357 151.344 48.5762 152.236 48.5762C153.421 48.5762 154.421 48.791 155.234 49.2207C156.055 49.6504 156.689 50.2428 157.139 50.998C157.594 51.7533 157.868 52.6126 157.959 53.5762H155.029C154.997 53.0033 154.883 52.5182 154.688 52.1211C154.492 51.7174 154.196 51.4147 153.799 51.2129C153.408 51.0046 152.887 50.9004 152.236 50.9004C151.748 50.9004 151.322 50.9915 150.957 51.1738C150.592 51.3561 150.286 51.6328 150.039 52.0039C149.792 52.375 149.606 52.8438 149.482 53.4102C149.365 53.9701 149.307 54.6276 149.307 55.3828V56.3887C149.307 57.1243 149.362 57.7721 149.473 58.332C149.583 58.8854 149.753 59.3542 149.98 59.7383C150.215 60.1159 150.514 60.4023 150.879 60.5977C151.25 60.7865 151.696 60.8809 152.217 60.8809C152.829 60.8809 153.333 60.7832 153.73 60.5879C154.128 60.3926 154.43 60.1029 154.639 59.7188C154.854 59.3346 154.98 58.8561 155.02 58.2832ZM171.543 55.5586V56.2324C171.543 57.3132 171.396 58.2832 171.104 59.1426C170.811 60.002 170.397 60.7344 169.863 61.3398C169.329 61.9388 168.691 62.3978 167.949 62.7168C167.214 63.0358 166.396 63.1953 165.498 63.1953C164.606 63.1953 163.789 63.0358 163.047 62.7168C162.311 62.3978 161.673 61.9388 161.133 61.3398C160.592 60.7344 160.173 60.002 159.873 59.1426C159.58 58.2832 159.434 57.3132 159.434 56.2324V55.5586C159.434 54.4714 159.58 53.5013 159.873 52.6484C160.166 51.7891 160.579 51.0566 161.113 50.4512C161.654 49.8457 162.292 49.3835 163.027 49.0645C163.77 48.7454 164.587 48.5859 165.479 48.5859C166.377 48.5859 167.194 48.7454 167.93 49.0645C168.672 49.3835 169.31 49.8457 169.844 50.4512C170.384 51.0566 170.801 51.7891 171.094 52.6484C171.393 53.5013 171.543 54.4714 171.543 55.5586ZM168.584 56.2324V55.5391C168.584 54.7839 168.516 54.1198 168.379 53.5469C168.242 52.974 168.04 52.4922 167.773 52.1016C167.507 51.7109 167.181 51.418 166.797 51.2227C166.413 51.0208 165.973 50.9199 165.479 50.9199C164.984 50.9199 164.544 51.0208 164.16 51.2227C163.783 51.418 163.46 51.7109 163.193 52.1016C162.933 52.4922 162.734 52.974 162.598 53.5469C162.461 54.1198 162.393 54.7839 162.393 55.5391V56.2324C162.393 56.9811 162.461 57.6452 162.598 58.2246C162.734 58.7975 162.936 59.2826 163.203 59.6797C163.47 60.0703 163.796 60.3665 164.18 60.5684C164.564 60.7702 165.003 60.8711 165.498 60.8711C165.993 60.8711 166.432 60.7702 166.816 60.5684C167.201 60.3665 167.523 60.0703 167.783 59.6797C168.044 59.2826 168.242 58.7975 168.379 58.2246C168.516 57.6452 168.584 56.9811 168.584 56.2324ZM174.99 48.7812H177.471L181.123 59.2207L184.775 48.7812H187.256L182.119 63H180.127L174.99 48.7812ZM173.652 48.7812H176.123L176.572 58.957V63H173.652V48.7812ZM186.123 48.7812H188.604V63H185.674V58.957L186.123 48.7812Z" fill="white"/>
<path d="M280.099 377.13H143.599C142.278 377.13 141.003 376.642 140.02 375.758C139.037 374.875 138.416 373.659 138.275 372.345L112.214 128.712C112.134 127.965 112.212 127.21 112.443 126.495C112.674 125.78 113.053 125.122 113.556 124.563C114.058 124.005 114.672 123.558 115.358 123.252C116.044 122.946 116.787 122.788 117.538 122.788H254.038C255.359 122.788 256.634 123.277 257.617 124.16C258.6 125.044 259.221 126.259 259.362 127.573L285.428 371.204C285.508 371.952 285.43 372.708 285.199 373.423C284.968 374.138 284.589 374.797 284.086 375.356C283.583 375.915 282.968 376.362 282.281 376.668C281.595 376.973 280.851 377.131 280.099 377.13Z" fill="#810A8B"/>
<path d="M271.764 361.308H157.564C156.417 361.308 155.31 360.884 154.456 360.117C153.602 359.35 153.062 358.294 152.94 357.153L128.455 137.467C128.386 136.819 128.454 136.162 128.654 135.542C128.855 134.921 129.184 134.349 129.62 133.864C130.056 133.379 130.59 132.991 131.186 132.725C131.782 132.459 132.427 132.322 133.079 132.322H247.279C248.427 132.322 249.534 132.747 250.388 133.514C251.241 134.281 251.781 135.336 251.903 136.477L276.388 356.163C276.458 356.812 276.39 357.468 276.189 358.089C275.988 358.71 275.659 359.281 275.223 359.767C274.787 360.252 274.254 360.64 273.658 360.906C273.062 361.171 272.417 361.308 271.764 361.308Z" fill="url(#paint4_linear_1_9069)"/>
<path d="M180.925 265.602C180.925 266.986 180.652 268.356 180.123 269.635C179.593 270.913 178.817 272.075 177.839 273.054C176.86 274.032 175.698 274.809 174.42 275.338C173.141 275.868 171.771 276.14 170.387 276.14C167.592 276.14 164.911 275.03 162.935 273.053C160.959 271.077 159.849 268.397 159.849 265.602C159.849 262.807 160.959 260.127 162.935 258.15C164.911 256.174 167.592 255.064 170.387 255.064C173.181 255.064 175.862 256.174 177.838 258.15C179.815 260.127 180.925 262.807 180.925 265.602Z" fill="#F37168"/>
<path d="M170.284 261.899C170.284 261.899 166.604 258.654 164 261.772C160.425 266.052 170.284 271.497 170.284 271.497C170.284 271.497 180.321 265.878 176.81 261.549C174.154 258.278 170.284 261.899 170.284 261.899Z" fill="white"/>
<path d="M238.63 265.602C238.63 268.673 237.41 271.618 235.238 273.789C233.067 275.961 230.122 277.181 227.051 277.181C223.98 277.181 221.035 275.961 218.864 273.789C216.693 271.618 215.473 268.673 215.473 265.602C215.473 262.531 216.693 259.587 218.864 257.415C221.035 255.244 223.98 254.024 227.051 254.024C230.122 254.024 233.066 255.244 235.238 257.415C237.409 259.586 238.629 262.531 238.63 265.602Z" fill="#430A56"/>
<path d="M226.793 257.975C228.293 257.768 229.593 261.496 229.485 262.686C229.377 263.876 232.285 262.531 233.679 263.566C235.073 264.601 234.663 269.986 233.679 270.348C232.695 270.71 228.728 270.762 227.45 270.089C226.805 269.701 226.061 269.511 225.31 269.542L224.652 263.909C225.272 263.683 225.842 263.338 226.329 262.892C227.208 262.114 226.793 257.975 226.793 257.975ZM220.114 271.175C220.477 271.486 224.566 272.469 224.773 270.398C224.98 268.327 223.945 263.926 223.945 263.926C223.945 263.926 221.099 263.782 220.114 264.286C219.735 264.484 219.752 270.867 220.115 271.178L220.114 271.175Z" fill="white"/>
<path d="M199.439 261.818H185.718C184.366 261.818 183.27 262.914 183.27 264.266V264.267C183.27 265.619 184.366 266.715 185.718 266.715H199.439C200.791 266.715 201.887 265.619 201.887 264.267V264.266C201.887 262.914 200.791 261.818 199.439 261.818Z" fill="#810A8B"/>
<path d="M199.439 268.164H185.718C184.366 268.164 183.27 269.26 183.27 270.612V270.613C183.27 271.965 184.366 273.061 185.718 273.061H199.439C200.791 273.061 201.887 271.965 201.887 270.613V270.612C201.887 269.26 200.791 268.164 199.439 268.164Z" fill="#810A8B"/>
<path d="M258.861 261.818H245.14C243.788 261.818 242.692 262.914 242.692 264.266V264.267C242.692 265.619 243.788 266.715 245.14 266.715H258.861C260.213 266.715 261.309 265.619 261.309 264.267V264.266C261.309 262.914 260.213 261.818 258.861 261.818Z" fill="#810A8B"/>
<path d="M258.861 268.164H245.14C243.788 268.164 242.692 269.26 242.692 270.612V270.613C242.692 271.965 243.788 273.061 245.14 273.061H258.861C260.213 273.061 261.309 271.965 261.309 270.613V270.612C261.309 269.26 260.213 268.164 258.861 268.164Z" fill="#810A8B"/>
<path d="M257.993 301.934H168.553C168.023 301.932 167.515 301.721 167.14 301.346C166.766 300.972 166.555 300.464 166.553 299.934C166.555 299.404 166.766 298.897 167.14 298.522C167.515 298.147 168.023 297.936 168.553 297.934H257.993C258.523 297.936 259.03 298.147 259.405 298.522C259.779 298.897 259.991 299.404 259.993 299.934C259.991 300.464 259.779 300.972 259.405 301.346C259.03 301.721 258.523 301.932 257.993 301.934Z" fill="#810A8B"/>
<path d="M259.31 309.486H169.87C169.34 309.484 168.833 309.273 168.458 308.898C168.083 308.523 167.872 308.016 167.87 307.486C167.872 306.956 168.083 306.448 168.458 306.074C168.833 305.699 169.34 305.488 169.87 305.486H259.31C259.84 305.488 260.348 305.699 260.722 306.074C261.097 306.448 261.308 306.956 261.31 307.486C261.308 308.016 261.097 308.523 260.722 308.898C260.348 309.273 259.84 309.484 259.31 309.486Z" fill="#810A8B"/>
<path d="M245.703 317.683H156.263C155.733 317.681 155.225 317.47 154.851 317.095C154.476 316.721 154.265 316.213 154.263 315.683C154.265 315.153 154.476 314.646 154.851 314.271C155.225 313.896 155.733 313.685 156.263 313.683H245.703C246.232 313.685 246.74 313.896 247.115 314.271C247.49 314.646 247.701 315.153 247.703 315.683C247.701 316.213 247.49 316.721 247.115 317.095C246.74 317.47 246.232 317.681 245.703 317.683Z" fill="#810A8B"/>
<path d="M144.383 377.13H139.569C138.689 377.13 137.839 376.805 137.184 376.218C136.528 375.63 136.112 374.821 136.016 373.946L108.916 127.131C108.856 126.584 108.912 126.031 109.08 125.508C109.248 124.984 109.525 124.502 109.892 124.092C110.259 123.682 110.708 123.355 111.21 123.13C111.712 122.906 112.256 122.79 112.806 122.79H116.937C117.901 122.79 118.831 123.146 119.549 123.79C120.267 124.433 120.722 125.319 120.827 126.277L147.934 373.167C147.989 373.666 147.937 374.171 147.784 374.649C147.63 375.127 147.378 375.567 147.043 375.941C146.708 376.315 146.298 376.614 145.84 376.819C145.381 377.024 144.885 377.13 144.383 377.13Z" fill="#430A56"/>
<path d="M238.698 370.122H214.388C214.03 370.121 213.687 369.979 213.434 369.725C213.181 369.472 213.039 369.129 213.038 368.771C213.039 368.414 213.182 368.071 213.435 367.818C213.688 367.565 214.03 367.422 214.388 367.421H238.698C239.056 367.422 239.398 367.565 239.651 367.818C239.904 368.071 240.047 368.414 240.048 368.771C240.047 369.129 239.905 369.472 239.652 369.725C239.399 369.979 239.056 370.121 238.698 370.122Z" fill="#0F2D5C"/>
<path d="M210.957 129.337C211.914 129.337 212.691 128.561 212.691 127.603C212.691 126.645 211.914 125.869 210.957 125.869C209.999 125.869 209.223 126.645 209.223 127.603C209.223 128.561 209.999 129.337 210.957 129.337Z" fill="#0F2D5C"/>
<path d="M217.76 129.337C218.718 129.337 219.494 128.561 219.494 127.603C219.494 126.645 218.718 125.869 217.76 125.869C216.803 125.869 216.026 126.645 216.026 127.603C216.026 128.561 216.803 129.337 217.76 129.337Z" fill="#0F2D5C"/>
<path d="M200.152 129.337H181.477C181.018 129.336 180.577 129.153 180.252 128.828C179.928 128.503 179.744 128.063 179.743 127.603C179.744 127.144 179.928 126.703 180.252 126.378C180.577 126.054 181.018 125.87 181.477 125.869H200.152C200.612 125.87 201.052 126.054 201.377 126.378C201.702 126.703 201.885 127.144 201.886 127.603C201.885 128.063 201.702 128.503 201.377 128.828C201.052 129.153 200.612 129.336 200.152 129.337Z" fill="#0F2D5C"/>
<path d="M219.017 285.993H71.9639C67.5457 285.993 63.9639 289.575 63.9639 293.993V371.795C63.9639 376.213 67.5457 379.795 71.9639 379.795H219.017C223.435 379.795 227.017 376.213 227.017 371.795V293.993C227.017 289.575 223.435 285.993 219.017 285.993Z" fill="#0F2D5C"/>
<path d="M215.829 290.128H75.1505C72.9413 290.128 71.1505 291.919 71.1505 294.128V371.661C71.1505 373.87 72.9413 375.661 75.1505 375.661H215.829C218.039 375.661 219.829 373.87 219.829 371.661V294.128C219.829 291.919 218.039 290.128 215.829 290.128Z" fill="#7A1999"/>
<g opacity="0.4">
<g opacity="0.4">
<path opacity="0.4" d="M143.49 358.997C135.523 358.988 127.885 355.819 122.251 350.185C116.618 344.551 113.449 336.913 113.439 328.946C113.448 320.979 116.618 313.34 122.251 307.706C127.885 302.072 135.523 298.903 143.49 298.894C151.458 298.903 159.097 302.072 164.73 307.706C170.364 313.34 173.533 320.978 173.542 328.946C173.533 336.913 170.364 344.552 164.73 350.185C159.096 355.819 151.458 358.988 143.49 358.997ZM143.49 302.897C136.584 302.905 129.963 305.652 125.079 310.535C120.195 315.419 117.448 322.04 117.44 328.947C117.448 335.853 120.195 342.475 125.079 347.358C129.963 352.241 136.584 354.988 143.49 354.996C150.397 354.988 157.018 352.241 161.902 347.358C166.785 342.475 169.533 335.853 169.541 328.947C169.533 322.04 166.786 315.418 161.903 310.535C157.019 305.651 150.397 302.904 143.49 302.896V302.897Z" fill="white"/>
</g>
</g>
<path opacity="0.4" d="M158.655 325.618C159.239 325.956 159.724 326.441 160.061 327.025C160.398 327.609 160.576 328.272 160.576 328.947C160.576 329.621 160.398 330.284 160.061 330.868C159.724 331.453 159.239 331.938 158.655 332.275L149.196 337.736L139.737 343.197C139.152 343.535 138.49 343.712 137.815 343.712C137.14 343.712 136.477 343.535 135.893 343.197C135.309 342.86 134.824 342.375 134.486 341.791C134.149 341.207 133.971 340.544 133.971 339.869V318.018C133.971 317.343 134.148 316.681 134.486 316.096C134.823 315.512 135.308 315.027 135.893 314.689C136.477 314.352 137.14 314.174 137.815 314.174C138.489 314.174 139.152 314.352 139.737 314.689L149.196 320.151L158.655 325.618Z" fill="white"/>
<path opacity="0.4" d="M87.4442 366.602C87.5876 366.685 87.7066 366.804 87.7894 366.948C87.8722 367.091 87.9158 367.254 87.9158 367.42C87.9158 367.585 87.8722 367.748 87.7894 367.892C87.7066 368.035 87.5876 368.155 87.4442 368.238L85.119 369.581L82.793 370.924C82.6494 371.007 82.4866 371.05 82.3209 371.05C82.1551 371.05 81.9923 371.006 81.8487 370.924C81.7051 370.841 81.5857 370.721 81.5027 370.578C81.4198 370.434 81.3762 370.272 81.376 370.106V364.736C81.3762 364.57 81.4198 364.407 81.5027 364.264C81.5857 364.12 81.7051 364.001 81.8487 363.918C81.9923 363.835 82.1551 363.791 82.3209 363.791C82.4866 363.791 82.6494 363.835 82.793 363.918L85.119 365.261L87.4442 366.602Z" fill="white"/>
<path opacity="0.4" d="M95.8731 371.051C95.705 371.051 95.544 370.984 95.4251 370.865C95.3063 370.746 95.2396 370.585 95.2393 370.417V364.417C95.2396 364.249 95.3063 364.088 95.4251 363.969C95.544 363.85 95.705 363.783 95.8731 363.783C96.0412 363.783 96.2023 363.85 96.3211 363.969C96.4399 364.088 96.5069 364.249 96.5071 364.417V370.417C96.5069 370.585 96.4399 370.746 96.3211 370.865C96.2023 370.984 96.0412 371.051 95.8731 371.051Z" fill="white"/>
<path opacity="0.4" d="M98.723 371.051C98.5549 371.051 98.3938 370.984 98.275 370.865C98.1561 370.746 98.0892 370.585 98.0889 370.417V364.417C98.0892 364.249 98.1561 364.088 98.275 363.969C98.3938 363.85 98.5549 363.783 98.723 363.783C98.8909 363.784 99.0516 363.851 99.1702 363.969C99.2889 364.088 99.3555 364.249 99.3558 364.417V370.417C99.3555 370.585 99.2889 370.746 99.1702 370.865C99.0516 370.984 98.8909 371.051 98.723 371.051Z" fill="white"/>
<path opacity="0.4" d="M205.071 366.696V366.237C205.071 365.955 205.183 365.684 205.383 365.484C205.582 365.284 205.853 365.172 206.136 365.172H206.685V363.789H205.407C204.951 363.789 204.513 363.97 204.19 364.293C203.868 364.615 203.687 365.053 203.687 365.509V366.696H205.071Z" fill="white"/>
<path opacity="0.4" d="M209.568 367.963V368.603C209.568 368.886 209.456 369.157 209.256 369.356C209.056 369.556 208.786 369.668 208.503 369.668H207.954V371.051H209.232C209.688 371.051 210.126 370.87 210.448 370.548C210.771 370.225 210.952 369.788 210.952 369.331V367.963H209.568Z" fill="white"/>
<path opacity="0.4" d="M207.953 365.168H208.502C208.785 365.168 209.055 365.28 209.255 365.48C209.455 365.68 209.567 365.951 209.567 366.233V366.692H210.95V365.505C210.95 365.049 210.769 364.611 210.446 364.289C210.124 363.966 209.686 363.785 209.23 363.785H207.952L207.953 365.168Z" fill="white"/>
<path opacity="0.4" d="M206.685 369.668H206.136C205.997 369.668 205.858 369.641 205.729 369.587C205.6 369.534 205.482 369.455 205.383 369.356C205.284 369.257 205.206 369.14 205.152 369.011C205.099 368.882 205.071 368.743 205.071 368.603V367.963H203.688V369.331C203.688 369.788 203.87 370.225 204.192 370.548C204.515 370.87 204.952 371.051 205.408 371.051H206.686L206.685 369.668Z" fill="white"/>
<path opacity="0.4" d="M187.217 366.695H114.102C113.947 366.211 113.642 365.788 113.231 365.489C112.82 365.189 112.324 365.028 111.816 365.028C111.307 365.028 110.812 365.189 110.401 365.489C109.99 365.788 109.685 366.211 109.53 366.695H107.447C107.253 366.696 107.067 366.773 106.93 366.91C106.792 367.048 106.715 367.234 106.714 367.428C106.714 367.622 106.792 367.808 106.929 367.946C107.066 368.083 107.253 368.161 107.447 368.162H109.53C109.685 368.646 109.99 369.068 110.401 369.368C110.812 369.668 111.307 369.829 111.816 369.829C112.324 369.829 112.82 369.668 113.231 369.368C113.642 369.068 113.947 368.646 114.102 368.162H187.217C187.411 368.161 187.598 368.084 187.735 367.946C187.873 367.809 187.95 367.622 187.951 367.428C187.95 367.233 187.872 367.047 187.735 366.91C187.597 366.773 187.411 366.695 187.217 366.695Z" fill="white"/>
<path opacity="0.4" d="M192.448 365.028H190.849V370.121H192.448L195.249 372.489V362.66L192.448 365.028Z" fill="white"/>
<path opacity="0.4" d="M198.225 367.43L198.696 366.959C198.774 366.88 198.818 366.774 198.818 366.664C198.818 366.553 198.774 366.447 198.696 366.369C198.618 366.291 198.511 366.247 198.401 366.247C198.29 366.247 198.184 366.291 198.106 366.369L197.635 366.841L197.163 366.369C197.085 366.291 196.979 366.247 196.868 366.247C196.758 366.247 196.652 366.291 196.574 366.369C196.496 366.447 196.452 366.553 196.452 366.664C196.452 366.774 196.496 366.88 196.574 366.959L197.045 367.43L196.574 367.902C196.496 367.98 196.452 368.086 196.452 368.197C196.452 368.307 196.496 368.413 196.574 368.492C196.652 368.57 196.758 368.614 196.868 368.614C196.979 368.614 197.085 368.57 197.163 368.492L197.635 368.02L198.106 368.492C198.184 368.57 198.29 368.614 198.401 368.614C198.511 368.614 198.618 368.57 198.696 368.492C198.774 368.413 198.818 368.307 198.818 368.197C198.818 368.086 198.774 367.98 198.696 367.902L198.225 367.43Z" fill="white"/>
<path d="M344.918 390.175C344.918 390.175 356.798 391.495 359.626 390.175C362.454 388.855 363.397 391.901 356.043 395.563C348.689 399.225 345.483 402.054 343.032 401.112C340.581 400.17 338.884 395.438 339.261 392.712C339.638 389.986 344.918 390.175 344.918 390.175Z" fill="#0F2D5C"/>
<path d="M291.553 388.667C291.553 388.667 290.987 397.719 293.815 399.604C296.643 401.489 300.073 404.035 293.439 404.035C286.805 404.035 285.039 400.924 282.964 397.718C280.889 394.512 278.733 392.029 281.683 389.861C284.633 387.693 284.764 385.649 285.33 385.649C285.896 385.649 291.553 388.667 291.553 388.667Z" fill="#0F2D5C"/>
<path d="M330.768 303.717C330.768 356.891 292.375 393.763 292.375 393.763C292.375 393.763 283.251 390.549 282.968 387.155C282.685 383.761 297.945 359.436 297.945 341.335V286.746L330.768 303.717Z" fill="#0E3A82"/>
<path d="M297.943 286.746V331.865C303.884 345.302 307.269 359.728 307.927 374.405C318.572 358.475 330.766 333.685 330.766 303.716L297.943 286.746Z" fill="#0F2D5C"/>
<path d="M297.957 277.695C297.108 322.101 335.701 394.226 338.351 395.357C341.001 396.488 348.503 392.726 348.072 389.983C337.837 324.93 335.857 281.655 335.857 281.655L297.957 277.695Z" fill="#0E3A82"/>
<path d="M340.382 221.278C341 221.82 341.761 222.172 342.574 222.291C343.387 222.41 344.217 222.291 344.965 221.949C347.51 220.723 356.805 214.155 356.522 212.549C356.239 210.943 351.896 210.563 351.896 210.563C351.896 210.563 338.441 221.199 340.382 221.278Z" fill="#255096"/>
<path d="M342.83 221.028C341.087 220.749 346.823 216.188 348.698 214.303C349.658 213.309 350.689 212.384 351.783 211.537C351.783 211.537 354.989 211.927 354.989 212.549C354.989 213.171 345.795 220.512 345.795 220.512C344.834 220.815 343.837 220.989 342.83 221.028Z" fill="#FFC34E"/>
<path d="M331.577 229.233C331.577 229.233 334.924 223.576 336.527 222.068C338.13 220.56 343.541 217.635 344.362 217.617C345.762 217.586 339.544 221.785 339.544 221.785C339.544 221.785 340.392 227.253 339.638 229.233C338.884 231.213 330.964 233.853 330.964 233.853L331.577 229.233Z" fill="#F09959"/>
<path d="M325.354 235.171C325.354 235.171 330.822 226.971 332.048 227.534C333.274 228.097 336.573 235.171 336.573 235.171C336.573 235.171 326.957 245.165 326.957 243.279C326.957 241.393 325.354 235.171 325.354 235.171Z" fill="#91D5FF"/>
<path d="M310.231 191.24C310.231 191.24 304.574 211.228 300.803 219.525C297.032 227.822 295.146 243.285 295.903 270.439C296.66 297.593 291.378 296.839 299.298 300.233C307.218 303.627 335.504 297.97 339.275 289.296C343.046 280.622 336.75 245.307 327.395 232.348C318.16 219.554 314.007 215 314.007 211.982C314.007 208.964 317.657 196.142 317.657 196.142L310.231 191.24Z" fill="#F09959"/>
<path d="M339.271 289.297C343.042 280.623 336.746 245.308 327.391 232.349C323.091 226.391 319.891 222.22 317.702 219.159C313.254 216.409 308.5 214.191 303.535 212.549C302.586 215.223 301.647 217.668 300.802 219.526C297.031 227.826 295.145 243.286 295.902 270.44C296.659 297.594 291.377 296.84 299.297 300.234C307.217 303.628 335.5 297.972 339.271 289.297Z" fill="#B3E2FF"/>
<path d="M300.173 208.969C300.267 207.417 320.413 215.38 320.539 216.889C321.014 220.41 322.019 223.838 323.522 227.057C325.19 230.089 295.475 247.024 296.567 238.779C297.659 230.534 299.922 213.114 300.173 208.969Z" fill="#B3E2FF"/>
<path d="M314.02 212.319C314.01 212.205 314.003 212.092 314.003 211.982C314.003 208.965 317.653 196.142 317.653 196.142L310.231 191.242C310.231 191.242 308.918 195.883 307.131 201.619C309.44 208.499 311.601 210.851 314.02 212.319Z" fill="#E38540"/>
<path d="M331.042 201.027C329.474 208.135 324.564 213.19 318.89 211.8C315.791 210.802 313.187 208.663 311.607 205.816C310.027 202.969 309.589 199.627 310.382 196.469C312.091 189.393 317.847 184.62 323.551 185.879C329.255 187.138 332.61 193.919 331.042 201.027Z" fill="#F09959"/>
<path d="M337.483 247.299C342.632 238.406 343.208 230.099 346.857 227.506C351.99 223.857 356.205 215.696 354.347 215.374C352.489 215.052 344.964 221.946 344.964 221.946C344.964 221.946 346.922 219.266 346.454 219.046C345.986 218.826 342.196 221.574 341.609 224.824C341.022 228.074 333.74 243.012 327.632 247.796C321.524 252.58 332.334 256.193 337.483 247.299Z" fill="#F09959"/>
<path d="M304.125 224.892C295 227.164 299.174 254.719 306.867 271.062C314.56 287.405 329.016 273.286 334.422 269.282C336.095 268.078 337.548 266.593 338.716 264.895C336.98 255.143 334.005 244.681 330.332 237.319C321.72 247.428 317.625 221.531 304.125 224.892Z" fill="#91D5FF"/>
<path d="M306.865 222.913C295.391 224.063 301.673 252.707 310.065 264.273C318.457 275.839 330.399 264.65 334.165 257.988C337.931 251.326 345.574 239.996 345.574 232.625C345.574 231.242 342.745 230.959 339.351 231.21C336.151 231.447 321.716 251.324 321.716 251.324C321.716 251.324 316.898 221.908 306.865 222.913Z" fill="#B3E2FF"/>
<path d="M334.546 186.206C341.562 189.16 337.359 198.506 333.66 198.854C329.961 199.202 325.683 192.383 323.486 192.154C321.289 191.925 323.93 195.969 321.974 196.894C320.923 197.32 319.983 197.983 319.229 198.831C318.474 199.679 317.925 200.689 317.624 201.783C317.054 204.211 315.493 209.495 318.045 209.726C320.597 209.957 323.372 207.183 325.106 207.067C326.2 207.007 327.296 207.138 328.346 207.453C328.346 207.453 323.945 213.541 320.708 213.888C317.471 214.235 313.947 209.508 311.434 205.513C308.921 201.518 309.988 198.856 309.988 198.856C309.988 198.856 307.417 201.75 305.799 201.518C304.181 201.286 308.227 198.975 308.342 192.154C308.457 185.333 311.463 181.754 315.163 181.754C318.863 181.754 318.4 179.871 324.05 180.02C329.141 180.144 332.899 185.513 334.546 186.206Z" fill="#0F2D5C"/>
<path d="M319.119 200.142C319.283 201.903 318.379 203.427 317.099 203.542C315.819 203.657 314.651 202.329 314.487 200.568C314.323 198.807 315.227 197.283 316.507 197.168C317.787 197.053 318.956 198.381 319.119 200.142Z" fill="#F09959"/>
<path d="M-0.227848 371.253C-6.28585 378.003 -17.623 376.996 -15.805 379.907C-13.987 382.818 -5.83487 382.072 -1.24787 381.828C6.38013 381.422 4.27211 377.051 4.87811 375.493C5.48411 373.935 -0.227848 371.253 -0.227848 371.253Z" fill="#0F2D5C"/>
<path d="M51.1828 275.797C51.1828 275.797 13.333 304.873 13.853 310.844C14.373 316.815 41.753 366.632 44.029 366.644C46.305 366.656 51.467 364.097 52.239 362.911C53.011 361.725 50.717 327.23 47.862 323.711C45.007 320.192 69.7438 284.883 69.7438 284.883L51.1828 275.797Z" fill="#0F2D5C"/>
<path d="M84.0781 269.567C84.0781 269.567 92.723 289.297 87.686 294.749C82.649 300.201 64.9731 304.235 59.0251 313.181C45.9491 332.85 45.7851 346.793 27.8721 361.864C9.95907 376.935 4.80518 377.304 4.80518 377.304L-1.2041 372.035C-1.2041 372.035 18.7862 344.853 26.5742 323.046C34.3622 301.239 54.874 275.537 54.874 275.537L84.0781 269.567Z" fill="#0E3A82"/>
<path d="M48.866 223.131C48.3192 223.611 47.6452 223.922 46.9253 224.028C46.2054 224.133 45.4705 224.028 44.8091 223.725C42.5551 222.64 34.3249 216.825 34.5759 215.405C34.8269 213.985 38.676 213.646 38.676 213.646C38.676 213.646 50.586 223.064 48.866 223.131Z" fill="#255096"/>
<path d="M46.6987 222.912C48.2417 222.665 43.1637 218.627 41.5037 216.957C40.6526 216.076 39.7396 215.258 38.7717 214.508C38.7717 214.508 35.9326 214.854 35.9326 215.408C35.9326 215.962 44.0728 222.459 44.0728 222.459C44.924 222.726 45.8071 222.878 46.6987 222.912Z" fill="#FFC34E"/>
<path d="M56.6628 230.178C56.6628 230.178 53.6988 225.169 52.2798 223.833C50.8608 222.497 46.0688 219.908 45.3418 219.892C44.0988 219.865 49.6086 223.582 49.6086 223.582C49.6086 223.582 48.8576 228.424 49.5256 230.182C50.1936 231.94 57.2058 234.273 57.2058 234.273L56.6628 230.178Z" fill="#F09959"/>
<path d="M62.1733 235.434C62.1733 235.434 57.3313 228.171 56.2463 228.672C55.1613 229.173 52.2393 235.434 52.2393 235.434C52.2393 235.434 60.7544 244.283 60.7544 242.613C61.0635 240.19 61.5376 237.792 62.1733 235.434Z" fill="#FB8627"/>
<path d="M75.5623 196.538C75.5623 196.538 80.5715 214.238 83.9105 221.582C87.2495 228.926 88.9193 242.619 88.2513 266.662C87.5833 290.705 92.2584 290.037 85.2464 293.042C78.2344 296.047 53.1893 291.042 49.8463 283.358C46.5033 275.674 52.0823 244.409 60.3653 232.935C68.5433 221.607 72.2193 217.574 72.2193 214.903C72.2193 212.232 68.9874 200.878 68.9874 200.878L75.5623 196.538Z" fill="#F09959"/>
<path d="M49.8496 283.358C46.5106 275.678 52.0857 244.41 60.3687 232.936C64.1767 227.661 67.0085 223.968 68.9475 221.257C72.8852 218.822 77.0949 216.857 81.4905 215.404C82.3305 217.772 83.1617 219.937 83.9097 221.582C87.2487 228.928 88.9185 242.619 88.2505 266.662C87.5825 290.705 92.2576 290.037 85.2456 293.042C78.2336 296.047 53.1886 291.039 49.8496 283.358Z" fill="url(#paint5_linear_1_9069)"/>
<path d="M84.4665 212.232C84.3835 210.858 66.5465 217.909 66.4345 219.245C66.0137 222.361 65.1231 225.395 63.7934 228.245C62.3154 230.93 88.6257 245.924 87.6587 238.624C86.6917 231.324 84.6885 215.905 84.4665 212.232Z" fill="url(#paint6_linear_1_9069)"/>
<path d="M72.2083 215.202C72.2187 215.102 72.2239 215.002 72.2241 214.902C72.2241 212.23 68.9922 200.877 68.9922 200.877L75.5632 196.536C75.5632 196.536 76.7262 200.645 78.3042 205.724C76.2632 211.823 74.3533 213.902 72.2083 215.202Z" fill="#E38540"/>
<path d="M59.0289 205.174C60.2429 210.674 64.0429 214.587 68.4339 213.511C70.8328 212.739 72.8479 211.083 74.0706 208.879C75.2934 206.675 75.632 204.089 75.0179 201.645C73.6949 196.169 69.241 192.474 64.826 193.445C60.411 194.416 57.8129 199.673 59.0289 205.174Z" fill="#F09959"/>
<path d="M51.4333 246.173C46.8733 238.299 46.3645 230.944 43.1335 228.648C38.5895 225.417 34.8564 218.191 36.5024 217.907C38.1484 217.623 44.8093 223.726 44.8093 223.726C44.8093 223.726 43.0755 221.353 43.4895 221.155C43.9035 220.957 47.2595 223.393 47.7805 226.271C48.3015 229.149 54.7475 242.371 60.1555 246.61C65.5635 250.849 55.9933 254.047 51.4333 246.173Z" fill="#F09959"/>
<path d="M80.9659 226.333C89.0459 228.344 85.3499 252.743 78.5389 267.213C71.7279 281.683 58.928 269.182 54.139 265.638C52.6583 264.571 51.3728 263.257 50.3389 261.753C51.8749 253.119 54.509 243.853 57.761 237.337C65.391 246.286 69.0159 223.357 80.9659 226.333Z" fill="url(#paint7_linear_1_9069)"/>
<path d="M78.5417 224.58C88.7017 225.599 83.1417 250.96 75.7097 261.201C68.2777 271.442 57.7097 261.535 54.3667 255.636C51.0237 249.737 44.2666 239.706 44.2666 233.179C44.2666 231.955 46.7666 231.704 49.7766 231.927C52.6066 232.137 65.3916 249.736 65.3916 249.736C65.3916 249.736 69.6587 223.692 78.5417 224.58Z" fill="url(#paint8_linear_1_9069)"/>
<path d="M44.0291 360.433C44.4871 371.333 32.029 380.163 37.218 380.942C42.407 381.721 46.4982 378.211 48.8682 375.552C51.2382 372.893 53.8122 372.107 53.1182 369.095C52.4242 366.083 52.3791 359.731 51.6541 357.654C50.9291 355.577 44.0291 360.433 44.0291 360.433Z" fill="#0F2D5C"/>
<path d="M63.073 188.097C52.473 188.822 53.822 205.257 53.822 205.257C53.822 205.257 62.568 205.51 65.176 204.757C67.0667 204.106 68.8431 203.161 70.4399 201.957C70.4399 201.957 72.04 208.182 76.428 208.529L80.811 208.876C80.811 208.876 83.7021 197.058 81.4111 191.729C76.6761 180.679 67.209 186.21 63.073 188.097Z" fill="#0F2D5C"/>
<path d="M74.6422 204.007C74.0142 205.622 72.5291 206.552 71.3241 206.084C70.1191 205.616 69.6522 203.927 70.2802 202.311C70.9082 200.695 72.3933 199.765 73.5983 200.234C74.8033 200.703 75.2702 202.395 74.6422 204.007Z" fill="#F09959"/>
<path d="M79.8799 200.44C79.8799 200.44 82.4238 209.222 85.9548 209.671C89.4858 210.12 112.055 211.428 106.289 235.114C102.278 251.582 95.1637 254.332 102.366 260.384C108.366 265.426 115.454 259.115 115.454 259.115C115.454 259.115 118.923 277.934 104.905 277.693C90.8868 277.452 84.1928 262.714 89.9048 249.193C95.6168 235.672 84.3049 232.212 83.8369 224.616C83.4864 220.624 83.4864 216.609 83.8369 212.616L79.8799 207.9V200.44Z" fill="#0F2D5C"/>
<path d="M291.48 151.285C291.48 154.08 290.37 156.76 288.394 158.737C286.418 160.713 283.737 161.823 280.942 161.823C278.148 161.823 275.467 160.713 273.491 158.737C271.514 156.76 270.404 154.08 270.404 151.285C270.404 148.49 271.514 145.81 273.491 143.834C275.467 141.857 278.148 140.747 280.942 140.747C283.737 140.747 286.418 141.857 288.394 143.834C290.37 145.81 291.48 148.49 291.48 151.285Z" fill="#F37168"/>
<path d="M280.841 147.581C280.841 147.581 277.161 144.336 274.557 147.454C270.982 151.734 280.841 157.178 280.841 157.178C280.841 157.178 290.877 151.56 287.367 147.23C284.711 143.955 280.841 147.581 280.841 147.581Z" fill="white"/>
<path d="M263.818 131.758C268.436 131.758 272.179 128.015 272.179 123.397C272.179 118.779 268.436 115.036 263.818 115.036C259.2 115.036 255.457 118.779 255.457 123.397C255.457 128.015 259.2 131.758 263.818 131.758Z" fill="#F37168"/>
<path d="M263.738 120.458C263.738 120.458 260.818 117.883 258.751 120.358C255.915 123.758 263.738 128.074 263.738 128.074C263.738 128.074 271.702 123.616 268.916 120.18C266.809 117.582 263.738 120.458 263.738 120.458Z" fill="white"/>
<path d="M282.891 102.857C287.635 102.857 291.481 99.0109 291.481 94.2668C291.481 89.5226 287.635 85.6768 282.891 85.6768C278.147 85.6768 274.301 89.5226 274.301 94.2668C274.301 99.0109 278.147 102.857 282.891 102.857Z" fill="#F37168"/>
<path d="M282.807 91.2467C282.807 91.2467 279.807 88.6018 277.684 91.1468C274.769 94.6358 282.807 99.0738 282.807 99.0738C282.807 99.0738 290.988 94.4938 288.126 90.9648C285.962 88.2918 282.807 91.2467 282.807 91.2467Z" fill="white"/>
<path d="M271.661 67.688C271.661 69.1965 271.062 70.6433 269.995 71.71C268.928 72.7767 267.482 73.376 265.973 73.376C264.465 73.376 263.018 72.7767 261.951 71.71C260.884 70.6433 260.285 69.1965 260.285 67.688C260.285 66.1794 260.884 64.7327 261.951 63.666C263.018 62.5993 264.465 62 265.973 62C267.482 62 268.928 62.5993 269.995 63.666C271.062 64.7327 271.661 66.1794 271.661 67.688Z" fill="#F37168"/>
<path d="M265.918 65.6892C265.918 65.6892 263.932 63.9372 262.525 65.6202C260.595 67.9302 265.918 70.8692 265.918 70.8692C265.918 70.8692 271.335 67.8362 269.44 65.4992C268.007 63.7322 265.918 65.6892 265.918 65.6892Z" fill="white"/>
<path d="M84.8721 175.123C88.9874 171.008 88.9874 164.336 84.8721 160.22C80.7567 156.105 74.0844 156.105 69.9691 160.22C65.8537 164.336 65.8537 171.008 69.9691 175.123C74.0844 179.239 80.7567 179.239 84.8721 175.123Z" fill="#F37168"/>
<path d="M77.3162 163.968C77.3162 163.968 73.6372 160.723 71.0322 163.841C67.4562 168.121 77.3162 173.565 77.3162 173.565C77.3162 173.565 87.3531 167.946 83.8421 163.617C81.1871 160.343 77.3162 163.968 77.3162 163.968Z" fill="white"/>
<path d="M85.2814 142.013C89.3932 140.322 91.3556 135.618 89.6647 131.506C87.9737 127.395 83.2697 125.432 79.1579 127.123C75.0461 128.814 73.0837 133.518 74.7747 137.63C76.4656 141.742 81.1697 143.704 85.2814 142.013Z" fill="#F37168"/>
<path d="M82.1418 131.739C82.1418 131.739 79.3307 129.26 77.3417 131.639C74.6107 134.909 82.1418 139.068 82.1418 139.068C82.1418 139.068 89.8096 134.776 87.1276 131.468C85.0986 128.969 82.1418 131.739 82.1418 131.739Z" fill="white"/>
<path d="M58.8146 116.909C62.5702 116.909 65.6146 113.865 65.6146 110.109C65.6146 106.353 62.5702 103.309 58.8146 103.309C55.0591 103.309 52.0146 106.353 52.0146 110.109C52.0146 113.865 55.0591 116.909 58.8146 116.909Z" fill="#F37168"/>
<path d="M58.7489 107.719C58.7489 107.719 56.3737 105.625 54.6937 107.637C52.3857 110.399 58.7489 113.912 58.7489 113.912C58.7489 113.912 65.2258 110.286 62.9598 107.493C61.2458 105.38 58.7489 107.719 58.7489 107.719Z" fill="white"/>
<path d="M254.191 245.308H150.561C149.315 245.308 148.112 244.849 147.181 244.019C146.251 243.19 145.658 242.046 145.516 240.808L134.203 141.516C134.122 140.805 134.192 140.085 134.408 139.403C134.625 138.721 134.983 138.093 135.46 137.559C135.936 137.026 136.52 136.599 137.173 136.306C137.826 136.014 138.533 135.863 139.248 135.863H242.877C244.123 135.863 245.327 136.321 246.257 137.151C247.188 137.981 247.781 139.124 247.923 140.363L259.236 239.655C259.317 240.366 259.247 241.085 259.03 241.767C258.813 242.449 258.455 243.077 257.979 243.611C257.503 244.145 256.919 244.572 256.266 244.864C255.613 245.157 254.906 245.308 254.191 245.308Z" fill="#430A56"/>
<path d="M207.523 157.387C211.898 166.136 208.277 176.211 199.671 179.771C191.009 183.354 181.538 181.319 177.163 172.571C172.788 163.823 176.037 153.33 184.421 149.138C192.805 144.946 203.148 148.638 207.523 157.387Z" fill="#FFC34E"/>
<path d="M183.941 180.86C182.966 180.86 181.053 180.516 178.625 178.36C176.488 176.324 175.075 173.646 174.598 170.733C173.836 166.759 174.333 162.192 176.074 157.158C176.095 157.098 176.127 157.042 176.17 156.994C176.212 156.946 176.264 156.908 176.321 156.88C176.379 156.852 176.442 156.836 176.505 156.832C176.569 156.828 176.633 156.837 176.694 156.858C176.754 156.879 176.81 156.912 176.857 156.954C176.905 156.997 176.944 157.048 176.972 157.106C177 157.164 177.016 157.226 177.02 157.29C177.024 157.354 177.014 157.418 176.993 157.478C175.308 162.348 174.825 166.747 175.555 170.551C175.991 173.253 177.295 175.738 179.271 177.632C182.32 180.337 184.363 179.85 184.383 179.845C184.508 179.811 184.641 179.829 184.753 179.893C184.866 179.958 184.948 180.064 184.982 180.189C185 180.25 185.006 180.315 184.998 180.378C184.991 180.441 184.972 180.503 184.941 180.559C184.909 180.614 184.868 180.663 184.817 180.703C184.767 180.743 184.71 180.772 184.649 180.789C184.417 180.843 184.179 180.867 183.941 180.86Z" fill="#FFC34E"/>
<path d="M228.812 192.984C228.812 192.984 226.612 192.21 225.444 187.415C224.844 184.947 226.444 180.679 227.778 179.345C226.911 176.877 223.577 167.667 225.043 167.673C226.525 167.679 229.844 177.873 229.844 177.873C229.844 177.873 231.644 168.402 232.779 168.535C233.914 168.668 232.779 178.406 232.779 178.406C232.779 178.406 236.81 179.085 238.048 182.741C239.286 186.397 235.421 192.128 235.421 192.928C235.421 193.728 234.979 196.281 234.979 196.281L228.644 195.281L228.812 192.984Z" fill="#E38540"/>
<path d="M233.783 178.091C234.853 178.3 235.815 178.879 236.503 179.725C236.985 179.912 237.395 180.247 237.673 180.683C237.951 181.118 238.084 181.631 238.051 182.147C237.997 183.035 235.777 186.047 234.28 187.232C232.448 188.683 231.553 187.282 231.98 186.815C232.407 186.348 231.113 186.348 230.58 185.748C230.047 185.148 232.247 180.904 232.58 179.725C232.913 178.546 233.178 178.014 233.783 178.091Z" fill="#F09959"/>
<path d="M230.497 184.88C233.581 185.413 235.982 185.28 235.849 184.413C235.716 183.546 232.837 182.193 232.049 181.699C231.261 181.205 230.497 184.88 230.497 184.88Z" fill="#E38540"/>
<path d="M230.447 187.482C232.147 190.69 230.114 193.351 228.813 192.982C227.512 192.613 225.588 189.682 225.313 186.282C225.038 182.882 225.244 182.815 226.513 181.082C227.782 179.349 231.381 181.015 232.381 181.982C233.381 182.949 235.516 183.816 234.581 184.416C233.646 185.016 230.981 184.416 230.01 184.016C229.039 183.616 229.11 184.616 228.645 185.083C228.18 185.55 229.247 185.213 230.447 187.482Z" fill="#F09959"/>
<path d="M197.318 191.433C208.369 197.486 221.506 227.042 221.506 227.042C221.506 227.042 224.929 200.616 227.978 194.685C228.76 193.164 234.978 194.211 235.978 195.748C236.978 197.285 239.178 235.319 234.178 241.914C229.178 248.509 216.97 246.814 216.97 246.814L200.953 232.905L197.318 191.433Z" fill="#A8CEFF"/>
<path d="M226.448 198.875C223.784 207.303 220.377 225.499 221.248 230.434C222.119 235.369 224.048 237.504 224.048 237.504C224.048 237.504 222.581 225.299 223.581 218.495C224.581 211.691 226.448 198.875 226.448 198.875Z" fill="#93BBF0"/>
<path d="M215.137 245.222C220.765 244.637 225.537 244.108 224.376 244.108C221.776 244.108 209.702 237.145 210.703 230.368C211.704 223.591 211.837 210.159 208.503 204.222L207.38 201.746C203.78 196.822 201.169 193.546 197.318 191.433L200.95 232.902L215.137 245.222Z" fill="#93BBF0"/>
<path d="M179.01 188.364C179.01 188.364 163.17 197.215 159.478 199.097C155.786 200.979 169.822 256.226 172.944 258.597C176.066 260.968 203.544 259.004 206.678 256.021C209.812 253.038 204.278 243.883 206.985 225.554C209.692 207.225 198.726 191.399 197.317 191.434C195.908 191.469 186.717 188.367 186.717 188.367L179.01 188.364Z" fill="#A8CEFF"/>
<path d="M172.945 258.596C176.067 260.964 195.734 261.017 204.105 258.412C205.051 258.118 209.34 256.412 209.44 254.802C208.43 254.612 204.419 255.094 202.791 254.72C197.129 253.42 194.011 246.405 194.011 246.405C194.011 246.405 190.893 245.283 183.918 242.329C176.943 239.375 179.818 230.429 179.651 226.492C179.484 222.555 172.758 209.671 160.122 199.906L158.963 200.425C158.061 209.405 170.057 256.406 172.945 258.596Z" fill="#93BBF0"/>
<path d="M158.234 200.137C150.604 224.537 139.786 252.217 141.509 252.217C143.232 252.217 187.046 253.988 188.77 252.517C190.494 251.046 190.001 245.38 189.756 244.642C189.511 243.904 164.846 239.527 164.846 239.527C164.846 239.527 168.094 233.198 169.325 220.827C170.556 208.456 159.682 195.51 158.234 200.137Z" fill="#A8CEFF"/>
<path d="M184.813 167.167L178.666 189.629C178.666 189.629 189.053 205.841 191.908 204.401C194.763 202.961 190.308 191.224 190.308 189.629C190.308 188.034 194.76 171.578 194.76 171.578L184.813 167.167Z" fill="#F09959"/>
<path d="M190.525 190.773C190.418 190.399 190.346 190.016 190.312 189.628C190.312 188.033 194.764 171.577 194.764 171.577L184.813 167.166L182.779 174.599C184.061 180.522 186.714 186.062 190.525 190.773Z" fill="#E38540"/>
<path d="M207.811 166.795C208.982 173.308 208.211 181.959 202.427 184.158C196.643 186.357 189.677 182.15 186.866 174.758C184.055 167.366 186.466 159.594 192.251 157.395C198.036 155.196 206.412 159.014 207.811 166.795Z" fill="#F09959"/>
<path d="M195.611 176.652C195.611 176.652 200.552 178.552 203.27 178.514C204.321 178.576 205.375 178.501 206.407 178.292C206.407 178.292 204.53 182.055 202.138 181.82C200.68 181.644 199.298 181.068 198.146 180.156C196.994 179.244 196.117 178.031 195.611 176.652Z" fill="white"/>
<path d="M188.239 170.465C189.05 172.742 188.346 175.072 186.667 175.67C184.988 176.268 182.967 174.907 182.159 172.63C181.351 170.353 182.052 168.023 183.732 167.425C185.412 166.827 187.428 168.183 188.239 170.465Z" fill="#F09959"/>
<path d="M207.88 158.612C205.911 173.896 187.341 171.927 187.341 171.927C187.341 171.927 183.511 166.892 181.788 169.533C180.065 172.174 184.179 154.033 194.834 153.466C198.335 153.278 207.88 158.612 207.88 158.612Z" fill="#FFC34E"/>
<path d="M178.949 161.586C184.504 161.586 189.007 157.361 189.007 152.15C189.007 146.939 184.504 142.714 178.949 142.714C173.394 142.714 168.891 146.939 168.891 152.15C168.891 157.361 173.394 161.586 178.949 161.586Z" fill="#FFC34E"/>
<path d="M123.375 150.094C139.116 150.094 151.876 137.333 151.876 121.593C151.876 105.852 139.116 93.0918 123.375 93.0918C107.634 93.0918 94.874 105.852 94.874 121.593C94.874 137.333 107.634 150.094 123.375 150.094Z" fill="#0E3A82"/>
<path d="M122.738 102.82C126.438 102.31 129.619 111.486 129.364 114.42C129.109 117.354 136.246 114.038 139.688 116.587C143.13 119.136 142.11 132.387 139.688 133.282C137.266 134.177 127.5 134.302 124.354 132.645C122.767 131.69 120.935 131.222 119.084 131.298L117.464 117.433C118.99 116.878 120.392 116.029 121.589 114.933C123.757 113.015 122.738 102.82 122.738 102.82ZM106.298 135.32C107.189 136.085 117.258 138.506 117.768 133.408C118.278 128.31 115.729 117.478 115.729 117.478C115.729 117.478 108.729 117.124 106.299 118.364C105.364 118.84 105.406 134.553 106.297 135.318L106.298 135.32Z" fill="white"/>
<path d="M252.002 354.741C260.24 354.741 266.918 348.063 266.918 339.825C266.918 331.587 260.24 324.909 252.002 324.909C243.764 324.909 237.086 331.587 237.086 339.825C237.086 348.063 243.764 354.741 252.002 354.741Z" fill="#C1C765"/>
<path d="M244.887 347.73C242.687 334.551 252.772 334.23 252.772 334.23V330.325L260.766 338.319L253.066 346.019V341.55C253.066 341.55 249.194 341.713 247.73 343.828C246.266 345.943 244.887 347.73 244.887 347.73Z" fill="white"/>
<path d="M210.768 299.3C211.03 298.187 210.341 297.072 209.229 296.81C208.116 296.547 207.001 297.236 206.738 298.349C206.476 299.461 207.165 300.576 208.277 300.839C209.39 301.102 210.505 300.413 210.768 299.3Z" fill="white"/>
<path d="M210.768 308.617C211.03 307.504 210.341 306.389 209.229 306.127C208.116 305.864 207.001 306.553 206.738 307.666C206.476 308.778 207.165 309.893 208.277 310.156C209.39 310.418 210.505 309.729 210.768 308.617Z" fill="white"/>
<path d="M203.06 303.64C203.06 303.912 203.007 304.181 202.903 304.433C202.799 304.684 202.646 304.912 202.454 305.105C202.262 305.297 202.034 305.449 201.782 305.554C201.531 305.658 201.262 305.711 200.99 305.711C200.441 305.711 199.914 305.493 199.526 305.105C199.137 304.716 198.919 304.189 198.919 303.64C198.919 303.091 199.137 302.564 199.526 302.176C199.914 301.787 200.441 301.569 200.99 301.569C201.262 301.569 201.531 301.623 201.782 301.727C202.034 301.831 202.262 301.984 202.454 302.176C202.646 302.368 202.799 302.596 202.903 302.848C203.007 303.099 203.06 303.368 203.06 303.64Z" fill="white"/>
<path d="M208.752 308.942C208.611 308.942 208.473 308.905 208.352 308.834L200.587 304.334C200.467 304.265 200.367 304.166 200.297 304.047C200.227 303.928 200.189 303.792 200.187 303.654C200.185 303.516 200.219 303.38 200.285 303.258C200.351 303.137 200.448 303.035 200.566 302.962L208.33 298.145C208.51 298.034 208.727 297.999 208.933 298.047C209.139 298.096 209.318 298.224 209.43 298.404C209.541 298.584 209.576 298.802 209.528 299.008C209.479 299.214 209.351 299.393 209.171 299.504L202.541 303.618L209.151 307.449C209.242 307.502 209.321 307.572 209.385 307.655C209.449 307.739 209.496 307.834 209.523 307.936C209.55 308.037 209.557 308.143 209.543 308.248C209.529 308.352 209.495 308.452 209.442 308.543C209.372 308.664 209.271 308.765 209.15 308.835C209.029 308.905 208.892 308.942 208.752 308.942Z" fill="white"/>
<defs>
<linearGradient id="paint0_linear_1_9069" x1="180" y1="0" x2="180" y2="352" gradientUnits="userSpaceOnUse">
<stop stop-color="#E163E1"/>
<stop offset="1" stop-color="#741595"/>
</linearGradient>
<linearGradient id="paint1_linear_1_9069" x1="180" y1="0" x2="180" y2="352" gradientUnits="userSpaceOnUse">
<stop stop-color="white" stop-opacity="0.32"/>
<stop offset="1" stop-color="#B247DF"/>
</linearGradient>
<linearGradient id="paint2_linear_1_9069" x1="60" y1="20" x2="60" y2="68" gradientUnits="userSpaceOnUse">
<stop stop-color="#741595"/>
<stop offset="1" stop-color="#E163E1"/>
</linearGradient>
<linearGradient id="paint3_linear_1_9069" x1="60" y1="20" x2="60" y2="68" gradientUnits="userSpaceOnUse">
<stop stop-color="white" stop-opacity="0"/>
<stop offset="1" stop-color="white"/>
</linearGradient>
<linearGradient id="paint4_linear_1_9069" x1="310.451" y1="124.079" x2="0.210586" y2="271.239" gradientUnits="userSpaceOnUse">
<stop stop-color="#DB5FDD"/>
<stop offset="1" stop-color="#4C13BF"/>
</linearGradient>
<linearGradient id="paint5_linear_1_9069" x1="2535.26" y1="202.448" x2="2412.34" y2="240.847" gradientUnits="userSpaceOnUse">
<stop stop-color="#FFC34E"/>
<stop offset="1" stop-color="#FB8627"/>
</linearGradient>
<linearGradient id="paint6_linear_1_9069" x1="2516.08" y1="186.272" x2="2400.66" y2="282.579" gradientUnits="userSpaceOnUse">
<stop stop-color="#FFC34E"/>
<stop offset="1" stop-color="#FB8627"/>
</linearGradient>
<linearGradient id="paint7_linear_1_9069" x1="2538.98" y1="165.094" x2="2443.51" y2="257.148" gradientUnits="userSpaceOnUse">
<stop stop-color="#FFC34E"/>
<stop offset="1" stop-color="#FB8627"/>
</linearGradient>
<linearGradient id="paint8_linear_1_9069" x1="2533.08" y1="193.831" x2="2424.29" y2="315.003" gradientUnits="userSpaceOnUse">
<stop stop-color="#FFC34E"/>
<stop offset="1" stop-color="#FB8627"/>
</linearGradient>
</defs>
</svg>
