<svg width="420" height="408" viewBox="0 0 420 408" fill="none" xmlns="http://www.w3.org/2000/svg">
<rect x="1.5" y="1" width="417" height="350" rx="19" fill="url(#paint0_linear_1_10314)"/>
<rect x="1.5" y="1" width="417" height="350" rx="19" stroke="url(#paint1_linear_1_10314)" stroke-width="2"/>
<circle cx="44.5" cy="44" r="24" fill="url(#paint2_linear_1_10314)"/>
<circle cx="44.5" cy="44" r="23" stroke="url(#paint3_linear_1_10314)" stroke-opacity="0.32" stroke-width="2"/>
<path d="M50.4531 49.3633V52H38.7812V49.75L44.3008 43.832C44.8555 43.2148 45.293 42.6719 45.6133 42.2031C45.9336 41.7266 46.1641 41.3008 46.3047 40.9258C46.4531 40.543 46.5273 40.1797 46.5273 39.8359C46.5273 39.3203 46.4414 38.8789 46.2695 38.5117C46.0977 38.1367 45.8438 37.8477 45.5078 37.6445C45.1797 37.4414 44.7734 37.3398 44.2891 37.3398C43.7734 37.3398 43.3281 37.4648 42.9531 37.7148C42.5859 37.9648 42.3047 38.3125 42.1094 38.7578C41.9219 39.2031 41.8281 39.707 41.8281 40.2695H38.4414C38.4414 39.2539 38.6836 38.3242 39.168 37.4805C39.6523 36.6289 40.3359 35.9531 41.2188 35.4531C42.1016 34.9453 43.1484 34.6914 44.3594 34.6914C45.5547 34.6914 46.5625 34.8867 47.3828 35.2773C48.2109 35.6602 48.8359 36.2148 49.2578 36.9414C49.6875 37.6602 49.9023 38.5195 49.9023 39.5195C49.9023 40.082 49.8125 40.6328 49.6328 41.1719C49.4531 41.7031 49.1953 42.2344 48.8594 42.7656C48.5312 43.2891 48.1328 43.8203 47.6641 44.3594C47.1953 44.8984 46.6758 45.457 46.1055 46.0352L43.1406 49.3633H50.4531Z" fill="white"/>
<path d="M91.3066 33.9316H87.6836V31.6465H91.3066C91.8665 31.6465 92.3223 31.5553 92.6738 31.373C93.0254 31.1842 93.2826 30.9238 93.4453 30.5918C93.6081 30.2598 93.6895 29.8854 93.6895 29.4688C93.6895 29.0456 93.6081 28.6517 93.4453 28.2871C93.2826 27.9225 93.0254 27.6296 92.6738 27.4082C92.3223 27.1868 91.8665 27.0762 91.3066 27.0762H88.6992V39H85.7695V24.7812H91.3066C92.4199 24.7812 93.3737 24.9831 94.168 25.3867C94.9688 25.7839 95.5807 26.334 96.0039 27.0371C96.4271 27.7402 96.6387 28.5443 96.6387 29.4492C96.6387 30.3672 96.4271 31.1615 96.0039 31.832C95.5807 32.5026 94.9688 33.0202 94.168 33.3848C93.3737 33.7493 92.4199 33.9316 91.3066 33.9316ZM104.07 36.6172V31.9102C104.07 31.5716 104.015 31.2819 103.904 31.041C103.794 30.7936 103.621 30.6016 103.387 30.4648C103.159 30.3281 102.863 30.2598 102.498 30.2598C102.186 30.2598 101.915 30.3151 101.688 30.4258C101.46 30.5299 101.284 30.6829 101.16 30.8848C101.036 31.0801 100.975 31.3112 100.975 31.5781H98.1621C98.1621 31.1289 98.2663 30.7025 98.4746 30.2988C98.6829 29.8952 98.9857 29.5404 99.3828 29.2344C99.7799 28.9219 100.252 28.6777 100.799 28.502C101.352 28.3262 101.971 28.2383 102.654 28.2383C103.475 28.2383 104.204 28.375 104.842 28.6484C105.48 28.9219 105.981 29.332 106.346 29.8789C106.717 30.4258 106.902 31.1094 106.902 31.9297V36.4512C106.902 37.0306 106.938 37.5059 107.01 37.877C107.081 38.2415 107.186 38.5605 107.322 38.834V39H104.48C104.344 38.7135 104.24 38.3555 104.168 37.9258C104.103 37.4896 104.07 37.0534 104.07 36.6172ZM104.441 32.5645L104.461 34.1562H102.889C102.518 34.1562 102.195 34.1986 101.922 34.2832C101.648 34.3678 101.424 34.4883 101.248 34.6445C101.072 34.7943 100.942 34.9701 100.857 35.1719C100.779 35.3737 100.74 35.5951 100.74 35.8359C100.74 36.0768 100.796 36.2949 100.906 36.4902C101.017 36.679 101.176 36.8288 101.385 36.9395C101.593 37.0436 101.837 37.0957 102.117 37.0957C102.54 37.0957 102.908 37.0111 103.221 36.8418C103.533 36.6725 103.774 36.4642 103.943 36.2168C104.119 35.9694 104.21 35.735 104.217 35.5137L104.959 36.7051C104.855 36.972 104.712 37.2487 104.529 37.5352C104.354 37.8216 104.129 38.0918 103.855 38.3457C103.582 38.5931 103.253 38.7982 102.869 38.9609C102.485 39.1172 102.029 39.1953 101.502 39.1953C100.831 39.1953 100.223 39.0618 99.6758 38.7949C99.1354 38.5215 98.7057 38.1471 98.3867 37.6719C98.0742 37.1901 97.918 36.6432 97.918 36.0312C97.918 35.4779 98.0221 34.9863 98.2305 34.5566C98.4388 34.127 98.7448 33.7656 99.1484 33.4727C99.5586 33.1732 100.07 32.9486 100.682 32.7988C101.294 32.6426 102.003 32.5645 102.811 32.5645H104.441ZM113.436 36.998C113.781 36.998 114.087 36.9329 114.354 36.8027C114.62 36.666 114.829 36.4772 114.979 36.2363C115.135 35.9889 115.216 35.6992 115.223 35.3672H117.869C117.863 36.1094 117.664 36.7702 117.273 37.3496C116.883 37.9225 116.359 38.375 115.701 38.707C115.044 39.0326 114.308 39.1953 113.494 39.1953C112.674 39.1953 111.958 39.0586 111.346 38.7852C110.74 38.5117 110.236 38.1341 109.832 37.6523C109.428 37.1641 109.126 36.5977 108.924 35.9531C108.722 35.3021 108.621 34.6055 108.621 33.8633V33.5801C108.621 32.8314 108.722 32.1348 108.924 31.4902C109.126 30.8392 109.428 30.2728 109.832 29.791C110.236 29.3027 110.74 28.9219 111.346 28.6484C111.951 28.375 112.661 28.2383 113.475 28.2383C114.34 28.2383 115.099 28.4043 115.75 28.7363C116.408 29.0684 116.922 29.5436 117.293 30.1621C117.671 30.7741 117.863 31.5 117.869 32.3398H115.223C115.216 31.9883 115.141 31.6693 114.998 31.3828C114.861 31.0964 114.66 30.8685 114.393 30.6992C114.132 30.5234 113.81 30.4355 113.426 30.4355C113.016 30.4355 112.68 30.5234 112.42 30.6992C112.16 30.8685 111.958 31.1029 111.814 31.4023C111.671 31.6953 111.57 32.0306 111.512 32.4082C111.46 32.7793 111.434 33.1699 111.434 33.5801V33.8633C111.434 34.2734 111.46 34.6673 111.512 35.0449C111.564 35.4225 111.661 35.7578 111.805 36.0508C111.954 36.3438 112.16 36.5749 112.42 36.7441C112.68 36.9134 113.019 36.998 113.436 36.998ZM123.865 36.998C124.21 36.998 124.516 36.9329 124.783 36.8027C125.05 36.666 125.258 36.4772 125.408 36.2363C125.564 35.9889 125.646 35.6992 125.652 35.3672H128.299C128.292 36.1094 128.094 36.7702 127.703 37.3496C127.312 37.9225 126.788 38.375 126.131 38.707C125.473 39.0326 124.738 39.1953 123.924 39.1953C123.104 39.1953 122.387 39.0586 121.775 38.7852C121.17 38.5117 120.665 38.1341 120.262 37.6523C119.858 37.1641 119.555 36.5977 119.354 35.9531C119.152 35.3021 119.051 34.6055 119.051 33.8633V33.5801C119.051 32.8314 119.152 32.1348 119.354 31.4902C119.555 30.8392 119.858 30.2728 120.262 29.791C120.665 29.3027 121.17 28.9219 121.775 28.6484C122.381 28.375 123.09 28.2383 123.904 28.2383C124.77 28.2383 125.529 28.4043 126.18 28.7363C126.837 29.0684 127.352 29.5436 127.723 30.1621C128.1 30.7741 128.292 31.5 128.299 32.3398H125.652C125.646 31.9883 125.571 31.6693 125.428 31.3828C125.291 31.0964 125.089 30.8685 124.822 30.6992C124.562 30.5234 124.24 30.4355 123.855 30.4355C123.445 30.4355 123.11 30.5234 122.85 30.6992C122.589 30.8685 122.387 31.1029 122.244 31.4023C122.101 31.6953 122 32.0306 121.941 32.4082C121.889 32.7793 121.863 33.1699 121.863 33.5801V33.8633C121.863 34.2734 121.889 34.6673 121.941 35.0449C121.993 35.4225 122.091 35.7578 122.234 36.0508C122.384 36.3438 122.589 36.5749 122.85 36.7441C123.11 36.9134 123.449 36.998 123.865 36.998ZM132.928 28.4336V39H130.115V28.4336H132.928ZM139.793 28.4336L135.242 35.0449H132.43L132.088 32.4473H133.953L136.229 28.4336H139.793ZM136.355 39L133.758 34.5371L136.209 33.1797L140.125 39H136.355ZM146.883 36.6172V31.9102C146.883 31.5716 146.827 31.2819 146.717 31.041C146.606 30.7936 146.434 30.6016 146.199 30.4648C145.971 30.3281 145.675 30.2598 145.311 30.2598C144.998 30.2598 144.728 30.3151 144.5 30.4258C144.272 30.5299 144.096 30.6829 143.973 30.8848C143.849 31.0801 143.787 31.3112 143.787 31.5781H140.975C140.975 31.1289 141.079 30.7025 141.287 30.2988C141.495 29.8952 141.798 29.5404 142.195 29.2344C142.592 28.9219 143.064 28.6777 143.611 28.502C144.165 28.3262 144.783 28.2383 145.467 28.2383C146.287 28.2383 147.016 28.375 147.654 28.6484C148.292 28.9219 148.794 29.332 149.158 29.8789C149.529 30.4258 149.715 31.1094 149.715 31.9297V36.4512C149.715 37.0306 149.751 37.5059 149.822 37.877C149.894 38.2415 149.998 38.5605 150.135 38.834V39H147.293C147.156 38.7135 147.052 38.3555 146.98 37.9258C146.915 37.4896 146.883 37.0534 146.883 36.6172ZM147.254 32.5645L147.273 34.1562H145.701C145.33 34.1562 145.008 34.1986 144.734 34.2832C144.461 34.3678 144.236 34.4883 144.061 34.6445C143.885 34.7943 143.755 34.9701 143.67 35.1719C143.592 35.3737 143.553 35.5951 143.553 35.8359C143.553 36.0768 143.608 36.2949 143.719 36.4902C143.829 36.679 143.989 36.8288 144.197 36.9395C144.406 37.0436 144.65 37.0957 144.93 37.0957C145.353 37.0957 145.721 37.0111 146.033 36.8418C146.346 36.6725 146.587 36.4642 146.756 36.2168C146.932 35.9694 147.023 35.735 147.029 35.5137L147.771 36.7051C147.667 36.972 147.524 37.2487 147.342 37.5352C147.166 37.8216 146.941 38.0918 146.668 38.3457C146.395 38.5931 146.066 38.7982 145.682 38.9609C145.298 39.1172 144.842 39.1953 144.314 39.1953C143.644 39.1953 143.035 39.0618 142.488 38.7949C141.948 38.5215 141.518 38.1471 141.199 37.6719C140.887 37.1901 140.73 36.6432 140.73 36.0312C140.73 35.4779 140.835 34.9863 141.043 34.5566C141.251 34.127 141.557 33.7656 141.961 33.4727C142.371 33.1732 142.882 32.9486 143.494 32.7988C144.106 32.6426 144.816 32.5645 145.623 32.5645H147.254ZM155.613 35.0156L151.219 28.4336H154.705L156.951 32.418H158.973L158.631 35.0156H155.613ZM156.99 34.5371L154.578 39H151.189L154.695 33.1797L156.99 34.5371ZM160.799 28.4336V39H157.986V28.4336H160.799ZM167.596 28.4336L163.201 35.0156H160.184L159.842 32.418H161.863L164.1 28.4336H167.596ZM164.227 39L161.814 34.5371L164.197 33.1797L167.684 39H164.227ZM171.854 35.0742L175.398 28.4336H178.211V39H175.398V32.3496L171.854 39H169.041V28.4336H171.854V35.0742ZM185.76 28.4336V39H182.938V28.4336H185.76ZM189.158 28.4336V30.6113H179.588V28.4336H189.158ZM194.773 39.1953C193.953 39.1953 193.217 39.0651 192.566 38.8047C191.915 38.5378 191.362 38.1699 190.906 37.7012C190.457 37.2324 190.112 36.6888 189.871 36.0703C189.63 35.4453 189.51 34.7812 189.51 34.0781V33.6875C189.51 32.8867 189.624 32.1543 189.852 31.4902C190.079 30.8262 190.405 30.25 190.828 29.7617C191.258 29.2734 191.779 28.8991 192.391 28.6387C193.003 28.3717 193.693 28.2383 194.461 28.2383C195.21 28.2383 195.874 28.362 196.453 28.6094C197.033 28.8568 197.518 29.2083 197.908 29.6641C198.305 30.1198 198.605 30.6667 198.807 31.3047C199.008 31.9362 199.109 32.6393 199.109 33.4141V34.5859H190.711V32.7109H196.346V32.4961C196.346 32.1055 196.274 31.7572 196.131 31.4512C195.994 31.1387 195.786 30.8913 195.506 30.709C195.226 30.5267 194.868 30.4355 194.432 30.4355C194.061 30.4355 193.742 30.5169 193.475 30.6797C193.208 30.8424 192.99 31.0703 192.82 31.3633C192.658 31.6562 192.534 32.0013 192.449 32.3984C192.371 32.7891 192.332 33.2188 192.332 33.6875V34.0781C192.332 34.5013 192.391 34.8919 192.508 35.25C192.632 35.6081 192.804 35.9173 193.025 36.1777C193.253 36.4382 193.527 36.64 193.846 36.7832C194.171 36.9264 194.539 36.998 194.949 36.998C195.457 36.998 195.929 36.9004 196.365 36.7051C196.808 36.5033 197.189 36.2005 197.508 35.7969L198.875 37.2812C198.654 37.6003 198.351 37.9062 197.967 38.1992C197.589 38.4922 197.133 38.7331 196.6 38.9219C196.066 39.1042 195.457 39.1953 194.773 39.1953ZM85.1445 57.8242V57.6191C85.1445 56.8444 85.2552 56.1315 85.4766 55.4805C85.6979 54.8229 86.0202 54.2533 86.4434 53.7715C86.8665 53.2897 87.3874 52.9154 88.0059 52.6484C88.6243 52.375 89.334 52.2383 90.1348 52.2383C90.9355 52.2383 91.6484 52.375 92.2734 52.6484C92.8984 52.9154 93.4225 53.2897 93.8457 53.7715C94.2754 54.2533 94.6009 54.8229 94.8223 55.4805C95.0436 56.1315 95.1543 56.8444 95.1543 57.6191V57.8242C95.1543 58.5924 95.0436 59.3053 94.8223 59.9629C94.6009 60.6139 94.2754 61.1836 93.8457 61.6719C93.4225 62.1536 92.9017 62.528 92.2832 62.7949C91.6647 63.0618 90.9551 63.1953 90.1543 63.1953C89.3535 63.1953 88.6406 63.0618 88.0156 62.7949C87.3971 62.528 86.873 62.1536 86.4434 61.6719C86.0202 61.1836 85.6979 60.6139 85.4766 59.9629C85.2552 59.3053 85.1445 58.5924 85.1445 57.8242ZM87.957 57.6191V57.8242C87.957 58.2669 87.9961 58.6803 88.0742 59.0645C88.1523 59.4486 88.276 59.7871 88.4453 60.0801C88.6211 60.3665 88.849 60.5911 89.1289 60.7539C89.4089 60.9167 89.7507 60.998 90.1543 60.998C90.5449 60.998 90.8802 60.9167 91.1602 60.7539C91.4401 60.5911 91.6647 60.3665 91.834 60.0801C92.0033 59.7871 92.127 59.4486 92.2051 59.0645C92.2897 58.6803 92.332 58.2669 92.332 57.8242V57.6191C92.332 57.1895 92.2897 56.7858 92.2051 56.4082C92.127 56.0241 92 55.6855 91.8242 55.3926C91.6549 55.0931 91.4303 54.8587 91.1504 54.6895C90.8704 54.5202 90.5319 54.4355 90.1348 54.4355C89.7376 54.4355 89.3991 54.5202 89.1191 54.6895C88.8457 54.8587 88.6211 55.0931 88.4453 55.3926C88.276 55.6855 88.1523 56.0241 88.0742 56.4082C87.9961 56.7858 87.957 57.1895 87.957 57.6191ZM105.154 48.7812V63H102.234V48.7812H105.154ZM111.014 48.7812V63H108.094V48.7812H111.014ZM116.873 48.7812V63H113.953V48.7812H116.873ZM122.732 48.7812V63H119.812V48.7812H122.732ZM125.438 61.6426C125.438 61.2259 125.581 60.8776 125.867 60.5977C126.16 60.3177 126.548 60.1777 127.029 60.1777C127.511 60.1777 127.895 60.3177 128.182 60.5977C128.475 60.8776 128.621 61.2259 128.621 61.6426C128.621 62.0592 128.475 62.4076 128.182 62.6875C127.895 62.9674 127.511 63.1074 127.029 63.1074C126.548 63.1074 126.16 62.9674 125.867 62.6875C125.581 62.4076 125.438 62.0592 125.438 61.6426ZM139.52 58.2832H142.439C142.381 59.2402 142.117 60.0898 141.648 60.832C141.186 61.5742 140.538 62.1536 139.705 62.5703C138.878 62.987 137.882 63.1953 136.717 63.1953C135.805 63.1953 134.988 63.0391 134.266 62.7266C133.543 62.4076 132.924 61.9518 132.41 61.3594C131.902 60.7669 131.515 60.0508 131.248 59.2109C130.981 58.3711 130.848 57.4303 130.848 56.3887V55.4023C130.848 54.3607 130.984 53.4199 131.258 52.5801C131.538 51.7337 131.935 51.0143 132.449 50.4219C132.97 49.8294 133.592 49.3737 134.314 49.0547C135.037 48.7357 135.844 48.5762 136.736 48.5762C137.921 48.5762 138.921 48.791 139.734 49.2207C140.555 49.6504 141.189 50.2428 141.639 50.998C142.094 51.7533 142.368 52.6126 142.459 53.5762H139.529C139.497 53.0033 139.383 52.5182 139.188 52.1211C138.992 51.7174 138.696 51.4147 138.299 51.2129C137.908 51.0046 137.387 50.9004 136.736 50.9004C136.248 50.9004 135.822 50.9915 135.457 51.1738C135.092 51.3561 134.786 51.6328 134.539 52.0039C134.292 52.375 134.106 52.8438 133.982 53.4102C133.865 53.9701 133.807 54.6276 133.807 55.3828V56.3887C133.807 57.1243 133.862 57.7721 133.973 58.332C134.083 58.8854 134.253 59.3542 134.48 59.7383C134.715 60.1159 135.014 60.4023 135.379 60.5977C135.75 60.7865 136.196 60.8809 136.717 60.8809C137.329 60.8809 137.833 60.7832 138.23 60.5879C138.628 60.3926 138.93 60.1029 139.139 59.7188C139.354 59.3346 139.48 58.8561 139.52 58.2832ZM156.043 55.5586V56.2324C156.043 57.3132 155.896 58.2832 155.604 59.1426C155.311 60.002 154.897 60.7344 154.363 61.3398C153.829 61.9388 153.191 62.3978 152.449 62.7168C151.714 63.0358 150.896 63.1953 149.998 63.1953C149.106 63.1953 148.289 63.0358 147.547 62.7168C146.811 62.3978 146.173 61.9388 145.633 61.3398C145.092 60.7344 144.673 60.002 144.373 59.1426C144.08 58.2832 143.934 57.3132 143.934 56.2324V55.5586C143.934 54.4714 144.08 53.5013 144.373 52.6484C144.666 51.7891 145.079 51.0566 145.613 50.4512C146.154 49.8457 146.792 49.3835 147.527 49.0645C148.27 48.7454 149.087 48.5859 149.979 48.5859C150.877 48.5859 151.694 48.7454 152.43 49.0645C153.172 49.3835 153.81 49.8457 154.344 50.4512C154.884 51.0566 155.301 51.7891 155.594 52.6484C155.893 53.5013 156.043 54.4714 156.043 55.5586ZM153.084 56.2324V55.5391C153.084 54.7839 153.016 54.1198 152.879 53.5469C152.742 52.974 152.54 52.4922 152.273 52.1016C152.007 51.7109 151.681 51.418 151.297 51.2227C150.913 51.0208 150.473 50.9199 149.979 50.9199C149.484 50.9199 149.044 51.0208 148.66 51.2227C148.283 51.418 147.96 51.7109 147.693 52.1016C147.433 52.4922 147.234 52.974 147.098 53.5469C146.961 54.1198 146.893 54.7839 146.893 55.5391V56.2324C146.893 56.9811 146.961 57.6452 147.098 58.2246C147.234 58.7975 147.436 59.2826 147.703 59.6797C147.97 60.0703 148.296 60.3665 148.68 60.5684C149.064 60.7702 149.503 60.8711 149.998 60.8711C150.493 60.8711 150.932 60.7702 151.316 60.5684C151.701 60.3665 152.023 60.0703 152.283 59.6797C152.544 59.2826 152.742 58.7975 152.879 58.2246C153.016 57.6452 153.084 56.9811 153.084 56.2324ZM159.49 48.7812H161.971L165.623 59.2207L169.275 48.7812H171.756L166.619 63H164.627L159.49 48.7812ZM158.152 48.7812H160.623L161.072 58.957V63H158.152V48.7812ZM170.623 48.7812H173.104V63H170.174V58.957L170.623 48.7812Z" fill="white"/>
<path d="M310.599 377.13H174.099C172.778 377.13 171.503 376.642 170.52 375.758C169.537 374.875 168.916 373.659 168.775 372.345L142.714 128.712C142.634 127.965 142.712 127.21 142.943 126.495C143.174 125.78 143.553 125.122 144.056 124.563C144.558 124.005 145.172 123.558 145.858 123.252C146.544 122.946 147.287 122.788 148.038 122.788H284.538C285.859 122.788 287.134 123.277 288.117 124.16C289.1 125.044 289.721 126.259 289.862 127.573L315.928 371.204C316.008 371.952 315.93 372.708 315.699 373.423C315.468 374.138 315.089 374.797 314.586 375.356C314.083 375.915 313.468 376.362 312.781 376.668C312.095 376.973 311.351 377.131 310.599 377.13Z" fill="#810A8B"/>
<path d="M302.264 361.308H188.064C186.917 361.308 185.809 360.884 184.956 360.117C184.102 359.35 183.562 358.294 183.44 357.153L158.955 137.467C158.886 136.819 158.954 136.162 159.154 135.542C159.355 134.921 159.684 134.349 160.12 133.864C160.556 133.379 161.09 132.991 161.686 132.725C162.282 132.459 162.927 132.322 163.579 132.322H277.779C278.927 132.322 280.034 132.747 280.887 133.514C281.741 134.281 282.281 135.336 282.403 136.477L306.888 356.163C306.958 356.812 306.89 357.468 306.689 358.089C306.488 358.71 306.159 359.281 305.723 359.767C305.287 360.252 304.754 360.64 304.158 360.906C303.562 361.171 302.917 361.308 302.264 361.308Z" fill="url(#paint4_linear_1_10314)"/>
<path d="M211.425 265.602C211.425 266.986 211.152 268.356 210.623 269.635C210.093 270.913 209.317 272.075 208.338 273.054C207.36 274.032 206.198 274.809 204.919 275.338C203.641 275.868 202.27 276.14 200.886 276.14C198.092 276.14 195.411 275.03 193.435 273.053C191.459 271.077 190.349 268.397 190.349 265.602C190.349 262.807 191.459 260.127 193.435 258.15C195.411 256.174 198.092 255.064 200.886 255.064C203.681 255.064 206.362 256.174 208.338 258.15C210.314 260.127 211.425 262.807 211.425 265.602Z" fill="#F37168"/>
<path d="M200.784 261.899C200.784 261.899 197.104 258.654 194.5 261.772C190.925 266.052 200.784 271.497 200.784 271.497C200.784 271.497 210.821 265.878 207.31 261.549C204.654 258.278 200.784 261.899 200.784 261.899Z" fill="white"/>
<path d="M269.13 265.602C269.13 268.673 267.91 271.618 265.738 273.789C263.567 275.961 260.622 277.181 257.551 277.181C254.48 277.181 251.535 275.961 249.364 273.789C247.193 271.618 245.973 268.673 245.973 265.602C245.973 262.531 247.193 259.587 249.364 257.415C251.535 255.244 254.48 254.024 257.551 254.024C260.622 254.024 263.566 255.244 265.738 257.415C267.909 259.586 269.129 262.531 269.13 265.602Z" fill="#430A56"/>
<path d="M257.293 257.975C258.793 257.768 260.093 261.496 259.985 262.686C259.877 263.876 262.785 262.531 264.179 263.566C265.573 264.601 265.163 269.986 264.179 270.348C263.195 270.71 259.228 270.762 257.95 270.089C257.305 269.701 256.561 269.511 255.81 269.542L255.152 263.909C255.772 263.683 256.342 263.338 256.829 262.892C257.708 262.114 257.293 257.975 257.293 257.975ZM250.614 271.175C250.977 271.486 255.066 272.469 255.273 270.398C255.48 268.327 254.445 263.926 254.445 263.926C254.445 263.926 251.599 263.782 250.614 264.286C250.235 264.484 250.252 270.867 250.615 271.178L250.614 271.175Z" fill="white"/>
<path d="M229.939 261.818H216.218C214.866 261.818 213.77 262.914 213.77 264.266V264.267C213.77 265.619 214.866 266.715 216.218 266.715H229.939C231.291 266.715 232.387 265.619 232.387 264.267V264.266C232.387 262.914 231.291 261.818 229.939 261.818Z" fill="#810A8B"/>
<path d="M229.939 268.164H216.218C214.866 268.164 213.77 269.26 213.77 270.612V270.613C213.77 271.965 214.866 273.061 216.218 273.061H229.939C231.291 273.061 232.387 271.965 232.387 270.613V270.612C232.387 269.26 231.291 268.164 229.939 268.164Z" fill="#810A8B"/>
<path d="M289.361 261.818H275.64C274.288 261.818 273.192 262.914 273.192 264.266V264.267C273.192 265.619 274.288 266.715 275.64 266.715H289.361C290.713 266.715 291.809 265.619 291.809 264.267V264.266C291.809 262.914 290.713 261.818 289.361 261.818Z" fill="#810A8B"/>
<path d="M289.361 268.164H275.64C274.288 268.164 273.192 269.26 273.192 270.612V270.613C273.192 271.965 274.288 273.061 275.64 273.061H289.361C290.713 273.061 291.809 271.965 291.809 270.613V270.612C291.809 269.26 290.713 268.164 289.361 268.164Z" fill="#810A8B"/>
<path d="M288.493 301.934H199.053C198.523 301.932 198.015 301.721 197.64 301.346C197.266 300.972 197.055 300.464 197.053 299.934C197.055 299.404 197.266 298.897 197.64 298.522C198.015 298.147 198.523 297.936 199.053 297.934H288.493C289.023 297.936 289.53 298.147 289.905 298.522C290.279 298.897 290.491 299.404 290.493 299.934C290.491 300.464 290.279 300.972 289.905 301.346C289.53 301.721 289.023 301.932 288.493 301.934Z" fill="#810A8B"/>
<path d="M289.81 309.486H200.37C199.84 309.484 199.333 309.273 198.958 308.898C198.583 308.523 198.372 308.016 198.37 307.486C198.372 306.956 198.583 306.448 198.958 306.074C199.333 305.699 199.84 305.488 200.37 305.486H289.81C290.34 305.488 290.848 305.699 291.222 306.074C291.597 306.448 291.808 306.956 291.81 307.486C291.808 308.016 291.597 308.523 291.222 308.898C290.848 309.273 290.34 309.484 289.81 309.486Z" fill="#810A8B"/>
<path d="M276.203 317.683H186.763C186.233 317.681 185.725 317.47 185.351 317.095C184.976 316.721 184.765 316.213 184.763 315.683C184.765 315.153 184.976 314.646 185.351 314.271C185.725 313.896 186.233 313.685 186.763 313.683H276.203C276.732 313.685 277.24 313.896 277.615 314.271C277.99 314.646 278.201 315.153 278.203 315.683C278.201 316.213 277.99 316.721 277.615 317.095C277.24 317.47 276.732 317.681 276.203 317.683Z" fill="#810A8B"/>
<path d="M174.883 377.13H170.069C169.189 377.13 168.339 376.805 167.684 376.218C167.028 375.63 166.612 374.821 166.516 373.946L139.416 127.131C139.356 126.584 139.412 126.031 139.58 125.508C139.748 124.984 140.025 124.502 140.392 124.092C140.759 123.682 141.208 123.355 141.71 123.13C142.212 122.906 142.756 122.79 143.306 122.79H147.437C148.401 122.79 149.331 123.146 150.049 123.79C150.767 124.433 151.222 125.319 151.327 126.277L178.434 373.167C178.489 373.666 178.437 374.171 178.284 374.649C178.13 375.127 177.878 375.567 177.543 375.941C177.208 376.315 176.798 376.614 176.34 376.819C175.881 377.024 175.385 377.13 174.883 377.13Z" fill="#430A56"/>
<path d="M269.198 370.122H244.888C244.53 370.121 244.187 369.979 243.934 369.725C243.681 369.472 243.539 369.129 243.538 368.771C243.539 368.414 243.682 368.071 243.935 367.818C244.188 367.565 244.53 367.422 244.888 367.421H269.198C269.556 367.422 269.898 367.565 270.151 367.818C270.404 368.071 270.547 368.414 270.548 368.771C270.547 369.129 270.405 369.472 270.152 369.725C269.899 369.979 269.556 370.121 269.198 370.122Z" fill="#0F2D5C"/>
<path d="M241.457 129.337C242.414 129.337 243.191 128.561 243.191 127.603C243.191 126.645 242.414 125.869 241.457 125.869C240.499 125.869 239.723 126.645 239.723 127.603C239.723 128.561 240.499 129.337 241.457 129.337Z" fill="#0F2D5C"/>
<path d="M248.26 129.337C249.218 129.337 249.994 128.561 249.994 127.603C249.994 126.645 249.218 125.869 248.26 125.869C247.303 125.869 246.526 126.645 246.526 127.603C246.526 128.561 247.303 129.337 248.26 129.337Z" fill="#0F2D5C"/>
<path d="M230.652 129.337H211.977C211.518 129.336 211.077 129.153 210.752 128.828C210.428 128.503 210.244 128.063 210.243 127.603C210.244 127.144 210.428 126.703 210.752 126.378C211.077 126.054 211.518 125.87 211.977 125.869H230.652C231.112 125.87 231.552 126.054 231.877 126.378C232.202 126.703 232.385 127.144 232.386 127.603C232.385 128.063 232.202 128.503 231.877 128.828C231.552 129.153 231.112 129.336 230.652 129.337Z" fill="#0F2D5C"/>
<path d="M249.517 285.993H102.464C98.0456 285.993 94.4639 289.575 94.4639 293.993V371.795C94.4639 376.213 98.0456 379.795 102.464 379.795H249.517C253.935 379.795 257.517 376.213 257.517 371.795V293.993C257.517 289.575 253.935 285.993 249.517 285.993Z" fill="#0F2D5C"/>
<path d="M246.329 290.128H105.65C103.441 290.128 101.65 291.919 101.65 294.128V371.661C101.65 373.87 103.441 375.661 105.65 375.661H246.329C248.539 375.661 250.329 373.87 250.329 371.661V294.128C250.329 291.919 248.539 290.128 246.329 290.128Z" fill="#7A1999"/>
<g opacity="0.4">
<g opacity="0.4">
<path opacity="0.4" d="M173.99 358.997C166.023 358.988 158.385 355.819 152.751 350.185C147.118 344.551 143.949 336.913 143.939 328.946C143.948 320.979 147.118 313.34 152.751 307.706C158.385 302.072 166.023 298.903 173.99 298.894C181.958 298.903 189.597 302.072 195.23 307.706C200.864 313.34 204.033 320.978 204.042 328.946C204.033 336.913 200.864 344.552 195.23 350.185C189.596 355.819 181.958 358.988 173.99 358.997ZM173.99 302.897C167.084 302.905 160.463 305.652 155.579 310.535C150.695 315.419 147.948 322.04 147.94 328.947C147.948 335.853 150.695 342.475 155.579 347.358C160.463 352.241 167.084 354.988 173.99 354.996C180.897 354.988 187.518 352.241 192.402 347.358C197.285 342.475 200.033 335.853 200.041 328.947C200.033 322.04 197.286 315.418 192.403 310.535C187.519 305.651 180.897 302.904 173.99 302.896V302.897Z" fill="white"/>
</g>
</g>
<path opacity="0.4" d="M189.155 325.618C189.739 325.956 190.224 326.441 190.561 327.025C190.898 327.609 191.076 328.272 191.076 328.947C191.076 329.621 190.898 330.284 190.561 330.868C190.224 331.453 189.739 331.938 189.155 332.275L179.696 337.736L170.237 343.197C169.652 343.535 168.99 343.712 168.315 343.712C167.64 343.712 166.977 343.535 166.393 343.197C165.809 342.86 165.324 342.375 164.986 341.791C164.649 341.207 164.471 340.544 164.471 339.869V318.018C164.471 317.343 164.648 316.681 164.986 316.096C165.323 315.512 165.808 315.027 166.393 314.689C166.977 314.352 167.64 314.174 168.315 314.174C168.989 314.174 169.652 314.352 170.237 314.689L179.696 320.151L189.155 325.618Z" fill="white"/>
<path opacity="0.4" d="M117.944 366.602C118.088 366.685 118.206 366.804 118.289 366.948C118.372 367.091 118.416 367.254 118.416 367.42C118.416 367.585 118.372 367.748 118.289 367.892C118.206 368.035 118.088 368.155 117.944 368.238L115.619 369.581L113.293 370.924C113.149 371.007 112.987 371.05 112.821 371.05C112.655 371.05 112.492 371.006 112.349 370.924C112.205 370.841 112.086 370.721 112.003 370.578C111.92 370.434 111.876 370.272 111.876 370.106V364.736C111.876 364.57 111.92 364.407 112.003 364.264C112.086 364.12 112.205 364.001 112.349 363.918C112.492 363.835 112.655 363.791 112.821 363.791C112.987 363.791 113.149 363.835 113.293 363.918L115.619 365.261L117.944 366.602Z" fill="white"/>
<path opacity="0.4" d="M126.373 371.051C126.205 371.051 126.044 370.984 125.925 370.865C125.806 370.746 125.74 370.585 125.739 370.417V364.417C125.74 364.249 125.806 364.088 125.925 363.969C126.044 363.85 126.205 363.783 126.373 363.783C126.541 363.783 126.702 363.85 126.821 363.969C126.94 364.088 127.007 364.249 127.007 364.417V370.417C127.007 370.585 126.94 370.746 126.821 370.865C126.702 370.984 126.541 371.051 126.373 371.051Z" fill="white"/>
<path opacity="0.4" d="M129.223 371.051C129.055 371.051 128.894 370.984 128.775 370.865C128.656 370.746 128.589 370.585 128.589 370.417V364.417C128.589 364.249 128.656 364.088 128.775 363.969C128.894 363.85 129.055 363.783 129.223 363.783C129.391 363.784 129.552 363.851 129.67 363.969C129.789 364.088 129.855 364.249 129.856 364.417V370.417C129.855 370.585 129.789 370.746 129.67 370.865C129.552 370.984 129.391 371.051 129.223 371.051Z" fill="white"/>
<path opacity="0.4" d="M235.571 366.696V366.237C235.571 365.955 235.683 365.684 235.883 365.484C236.082 365.284 236.353 365.172 236.636 365.172H237.185V363.789H235.907C235.451 363.789 235.013 363.97 234.69 364.293C234.368 364.615 234.187 365.053 234.187 365.509V366.696H235.571Z" fill="white"/>
<path opacity="0.4" d="M240.068 367.963V368.603C240.068 368.886 239.956 369.157 239.756 369.356C239.556 369.556 239.286 369.668 239.003 369.668H238.454V371.051H239.732C240.188 371.051 240.626 370.87 240.948 370.548C241.271 370.225 241.452 369.788 241.452 369.331V367.963H240.068Z" fill="white"/>
<path opacity="0.4" d="M238.453 365.168H239.002C239.285 365.168 239.555 365.28 239.755 365.48C239.955 365.68 240.067 365.951 240.067 366.233V366.692H241.45V365.505C241.45 365.049 241.269 364.611 240.946 364.289C240.624 363.966 240.186 363.785 239.73 363.785H238.452L238.453 365.168Z" fill="white"/>
<path opacity="0.4" d="M237.185 369.668H236.636C236.497 369.668 236.358 369.641 236.229 369.587C236.1 369.534 235.982 369.455 235.883 369.356C235.784 369.257 235.706 369.14 235.652 369.011C235.599 368.882 235.571 368.743 235.571 368.603V367.963H234.188V369.331C234.188 369.788 234.37 370.225 234.692 370.548C235.015 370.87 235.452 371.051 235.908 371.051H237.186L237.185 369.668Z" fill="white"/>
<path opacity="0.4" d="M217.717 366.695H144.602C144.447 366.211 144.142 365.788 143.731 365.489C143.32 365.189 142.824 365.028 142.316 365.028C141.807 365.028 141.312 365.189 140.901 365.489C140.49 365.788 140.185 366.211 140.03 366.695H137.947C137.753 366.696 137.567 366.773 137.429 366.91C137.292 367.048 137.215 367.234 137.214 367.428C137.214 367.622 137.292 367.808 137.429 367.946C137.566 368.083 137.752 368.161 137.947 368.162H140.03C140.185 368.646 140.49 369.068 140.901 369.368C141.312 369.668 141.807 369.829 142.316 369.829C142.824 369.829 143.32 369.668 143.731 369.368C144.142 369.068 144.447 368.646 144.602 368.162H217.717C217.911 368.161 218.098 368.084 218.235 367.946C218.373 367.809 218.45 367.622 218.451 367.428C218.45 367.233 218.372 367.047 218.235 366.91C218.097 366.773 217.911 366.695 217.717 366.695Z" fill="white"/>
<path opacity="0.4" d="M222.948 365.028H221.349V370.121H222.948L225.749 372.489V362.66L222.948 365.028Z" fill="white"/>
<path opacity="0.4" d="M228.725 367.43L229.196 366.959C229.274 366.88 229.318 366.774 229.318 366.664C229.318 366.553 229.274 366.447 229.196 366.369C229.118 366.291 229.011 366.247 228.901 366.247C228.79 366.247 228.684 366.291 228.606 366.369L228.135 366.841L227.663 366.369C227.585 366.291 227.479 366.247 227.368 366.247C227.258 366.247 227.152 366.291 227.074 366.369C226.996 366.447 226.952 366.553 226.952 366.664C226.952 366.774 226.996 366.88 227.074 366.959L227.545 367.43L227.074 367.902C226.996 367.98 226.952 368.086 226.952 368.197C226.952 368.307 226.996 368.413 227.074 368.492C227.152 368.57 227.258 368.614 227.368 368.614C227.479 368.614 227.585 368.57 227.663 368.492L228.135 368.02L228.606 368.492C228.684 368.57 228.79 368.614 228.901 368.614C229.011 368.614 229.118 368.57 229.196 368.492C229.274 368.413 229.318 368.307 229.318 368.197C229.318 368.086 229.274 367.98 229.196 367.902L228.725 367.43Z" fill="white"/>
<path d="M375.418 390.175C375.418 390.175 387.298 391.495 390.126 390.175C392.954 388.855 393.897 391.901 386.543 395.563C379.189 399.225 375.983 402.054 373.532 401.112C371.081 400.17 369.384 395.438 369.761 392.712C370.138 389.986 375.418 390.175 375.418 390.175Z" fill="#0F2D5C"/>
<path d="M322.053 388.667C322.053 388.667 321.487 397.719 324.315 399.604C327.143 401.489 330.573 404.035 323.939 404.035C317.305 404.035 315.539 400.924 313.464 397.718C311.389 394.512 309.233 392.029 312.183 389.861C315.133 387.693 315.264 385.649 315.83 385.649C316.396 385.649 322.053 388.667 322.053 388.667Z" fill="#0F2D5C"/>
<path d="M361.268 303.717C361.268 356.891 322.875 393.763 322.875 393.763C322.875 393.763 313.751 390.549 313.468 387.155C313.185 383.761 328.445 359.436 328.445 341.335V286.746L361.268 303.717Z" fill="#0E3A82"/>
<path d="M328.443 286.746V331.865C334.384 345.302 337.769 359.728 338.427 374.405C349.072 358.475 361.266 333.685 361.266 303.716L328.443 286.746Z" fill="#0F2D5C"/>
<path d="M328.457 277.695C327.608 322.101 366.201 394.226 368.851 395.357C371.501 396.488 379.003 392.726 378.572 389.983C368.337 324.93 366.357 281.655 366.357 281.655L328.457 277.695Z" fill="#0E3A82"/>
<path d="M370.882 221.278C371.5 221.82 372.261 222.172 373.074 222.291C373.887 222.41 374.717 222.291 375.465 221.949C378.01 220.723 387.305 214.155 387.022 212.549C386.739 210.943 382.396 210.563 382.396 210.563C382.396 210.563 368.941 221.199 370.882 221.278Z" fill="#255096"/>
<path d="M373.33 221.028C371.587 220.749 377.323 216.188 379.198 214.303C380.158 213.309 381.189 212.384 382.283 211.537C382.283 211.537 385.489 211.927 385.489 212.549C385.489 213.171 376.295 220.512 376.295 220.512C375.334 220.815 374.337 220.989 373.33 221.028Z" fill="#FFC34E"/>
<path d="M362.077 229.233C362.077 229.233 365.424 223.576 367.027 222.068C368.63 220.56 374.041 217.635 374.862 217.617C376.262 217.586 370.044 221.785 370.044 221.785C370.044 221.785 370.892 227.253 370.138 229.233C369.384 231.213 361.464 233.853 361.464 233.853L362.077 229.233Z" fill="#F09959"/>
<path d="M355.854 235.171C355.854 235.171 361.322 226.971 362.548 227.534C363.774 228.097 367.073 235.171 367.073 235.171C367.073 235.171 357.457 245.165 357.457 243.279C357.457 241.393 355.854 235.171 355.854 235.171Z" fill="#91D5FF"/>
<path d="M340.731 191.24C340.731 191.24 335.074 211.228 331.303 219.525C327.532 227.822 325.646 243.285 326.403 270.439C327.16 297.593 321.878 296.839 329.798 300.233C337.718 303.627 366.004 297.97 369.775 289.296C373.546 280.622 367.25 245.307 357.895 232.348C348.66 219.554 344.507 215 344.507 211.982C344.507 208.964 348.157 196.142 348.157 196.142L340.731 191.24Z" fill="#F09959"/>
<path d="M369.771 289.297C373.542 280.623 367.246 245.308 357.891 232.349C353.591 226.391 350.391 222.22 348.202 219.159C343.754 216.409 339 214.191 334.035 212.549C333.086 215.223 332.147 217.668 331.302 219.526C327.531 227.826 325.645 243.286 326.402 270.44C327.159 297.594 321.877 296.84 329.797 300.234C337.717 303.628 366 297.972 369.771 289.297Z" fill="#B3E2FF"/>
<path d="M330.673 208.969C330.767 207.417 350.913 215.38 351.039 216.889C351.514 220.41 352.519 223.838 354.022 227.057C355.69 230.089 325.975 247.024 327.067 238.779C328.159 230.534 330.422 213.114 330.673 208.969Z" fill="#B3E2FF"/>
<path d="M344.52 212.319C344.51 212.205 344.503 212.092 344.503 211.982C344.503 208.965 348.153 196.142 348.153 196.142L340.731 191.242C340.731 191.242 339.418 195.883 337.631 201.619C339.94 208.499 342.101 210.851 344.52 212.319Z" fill="#E38540"/>
<path d="M361.542 201.027C359.974 208.135 355.064 213.19 349.39 211.8C346.291 210.802 343.687 208.663 342.107 205.816C340.527 202.969 340.089 199.627 340.882 196.469C342.591 189.393 348.347 184.62 354.051 185.879C359.755 187.138 363.11 193.919 361.542 201.027Z" fill="#F09959"/>
<path d="M367.983 247.299C373.132 238.406 373.708 230.099 377.357 227.506C382.49 223.857 386.705 215.696 384.847 215.374C382.989 215.052 375.464 221.946 375.464 221.946C375.464 221.946 377.422 219.266 376.954 219.046C376.486 218.826 372.696 221.574 372.109 224.824C371.522 228.074 364.24 243.012 358.132 247.796C352.024 252.58 362.834 256.193 367.983 247.299Z" fill="#F09959"/>
<path d="M334.625 224.892C325.5 227.164 329.674 254.719 337.367 271.062C345.06 287.405 359.516 273.286 364.922 269.282C366.595 268.078 368.048 266.593 369.216 264.895C367.48 255.143 364.505 244.681 360.832 237.319C352.22 247.428 348.125 221.531 334.625 224.892Z" fill="#91D5FF"/>
<path d="M337.365 222.913C325.891 224.063 332.173 252.707 340.565 264.273C348.957 275.839 360.899 264.65 364.665 257.988C368.431 251.326 376.074 239.996 376.074 232.625C376.074 231.242 373.245 230.959 369.851 231.21C366.651 231.447 352.216 251.324 352.216 251.324C352.216 251.324 347.398 221.908 337.365 222.913Z" fill="#B3E2FF"/>
<path d="M365.046 186.206C372.062 189.16 367.859 198.506 364.16 198.854C360.461 199.202 356.183 192.383 353.986 192.154C351.789 191.925 354.43 195.969 352.474 196.894C351.423 197.32 350.483 197.983 349.729 198.831C348.974 199.679 348.425 200.689 348.124 201.783C347.554 204.211 345.993 209.495 348.545 209.726C351.097 209.957 353.872 207.183 355.606 207.067C356.7 207.007 357.796 207.138 358.846 207.453C358.846 207.453 354.445 213.541 351.208 213.888C347.971 214.235 344.447 209.508 341.934 205.513C339.421 201.518 340.488 198.856 340.488 198.856C340.488 198.856 337.917 201.75 336.299 201.518C334.681 201.286 338.727 198.975 338.842 192.154C338.957 185.333 341.963 181.754 345.663 181.754C349.363 181.754 348.9 179.871 354.55 180.02C359.641 180.144 363.399 185.513 365.046 186.206Z" fill="#0F2D5C"/>
<path d="M349.619 200.142C349.783 201.903 348.879 203.427 347.599 203.542C346.319 203.657 345.151 202.329 344.987 200.568C344.823 198.807 345.727 197.283 347.007 197.168C348.287 197.053 349.456 198.381 349.619 200.142Z" fill="#F09959"/>
<path d="M30.2722 371.253C24.2142 378.003 12.877 376.996 14.695 379.907C16.513 382.818 24.6651 382.072 29.2521 381.828C36.8801 381.422 34.7721 377.051 35.3781 375.493C35.9841 373.935 30.2722 371.253 30.2722 371.253Z" fill="#0F2D5C"/>
<path d="M81.6828 275.797C81.6828 275.797 43.833 304.873 44.353 310.844C44.873 316.815 72.253 366.632 74.529 366.644C76.805 366.656 81.967 364.097 82.739 362.911C83.511 361.725 81.217 327.23 78.362 323.711C75.507 320.192 100.244 284.883 100.244 284.883L81.6828 275.797Z" fill="#0F2D5C"/>
<path d="M114.578 269.567C114.578 269.567 123.223 289.297 118.186 294.749C113.149 300.201 95.4731 304.235 89.5251 313.181C76.4491 332.85 76.2851 346.793 58.3721 361.864C40.4591 376.935 35.3052 377.304 35.3052 377.304L29.2959 372.035C29.2959 372.035 49.2862 344.853 57.0742 323.046C64.8622 301.239 85.374 275.537 85.374 275.537L114.578 269.567Z" fill="#0E3A82"/>
<path d="M79.366 223.131C78.8192 223.611 78.1452 223.922 77.4253 224.028C76.7054 224.133 75.9705 224.028 75.3091 223.725C73.0551 222.64 64.8249 216.825 65.0759 215.405C65.3269 213.985 69.176 213.646 69.176 213.646C69.176 213.646 81.086 223.064 79.366 223.131Z" fill="#255096"/>
<path d="M77.1987 222.912C78.7417 222.665 73.6637 218.627 72.0037 216.957C71.1526 216.076 70.2396 215.258 69.2717 214.508C69.2717 214.508 66.4326 214.854 66.4326 215.408C66.4326 215.962 74.5728 222.459 74.5728 222.459C75.424 222.726 76.3071 222.878 77.1987 222.912Z" fill="#FFC34E"/>
<path d="M87.1628 230.178C87.1628 230.178 84.1988 225.169 82.7798 223.833C81.3608 222.497 76.5688 219.908 75.8418 219.892C74.5988 219.865 80.1086 223.582 80.1086 223.582C80.1086 223.582 79.3576 228.424 80.0256 230.182C80.6936 231.94 87.7058 234.273 87.7058 234.273L87.1628 230.178Z" fill="#F09959"/>
<path d="M92.6733 235.434C92.6733 235.434 87.8313 228.171 86.7463 228.672C85.6613 229.173 82.7393 235.434 82.7393 235.434C82.7393 235.434 91.2544 244.283 91.2544 242.613C91.5635 240.19 92.0376 237.792 92.6733 235.434Z" fill="#FB8627"/>
<path d="M106.062 196.538C106.062 196.538 111.071 214.238 114.41 221.582C117.749 228.926 119.419 242.619 118.751 266.662C118.083 290.705 122.758 290.037 115.746 293.042C108.734 296.047 83.6893 291.042 80.3463 283.358C77.0033 275.674 82.5823 244.409 90.8653 232.935C99.0433 221.607 102.719 217.574 102.719 214.903C102.719 212.232 99.4874 200.878 99.4874 200.878L106.062 196.538Z" fill="#F09959"/>
<path d="M80.3496 283.358C77.0106 275.678 82.5857 244.41 90.8687 232.936C94.6767 227.661 97.5085 223.968 99.4475 221.257C103.385 218.822 107.595 216.857 111.99 215.404C112.83 217.772 113.662 219.937 114.41 221.582C117.749 228.928 119.418 242.619 118.75 266.662C118.083 290.705 122.758 290.037 115.746 293.042C108.734 296.047 83.6886 291.039 80.3496 283.358Z" fill="url(#paint5_linear_1_10314)"/>
<path d="M114.967 212.232C114.884 210.858 97.0465 217.909 96.9345 219.245C96.5137 222.361 95.6231 225.395 94.2934 228.245C92.8154 230.93 119.126 245.924 118.159 238.624C117.192 231.324 115.189 215.905 114.967 212.232Z" fill="url(#paint6_linear_1_10314)"/>
<path d="M102.708 215.202C102.719 215.102 102.724 215.002 102.724 214.902C102.724 212.23 99.4922 200.877 99.4922 200.877L106.063 196.536C106.063 196.536 107.226 200.645 108.804 205.724C106.763 211.823 104.853 213.902 102.708 215.202Z" fill="#E38540"/>
<path d="M89.5289 205.174C90.7429 210.674 94.5429 214.587 98.9339 213.511C101.333 212.739 103.348 211.083 104.571 208.879C105.793 206.675 106.132 204.089 105.518 201.645C104.195 196.169 99.741 192.474 95.326 193.445C90.911 194.416 88.3129 199.673 89.5289 205.174Z" fill="#F09959"/>
<path d="M81.9333 246.173C77.3733 238.299 76.8645 230.944 73.6335 228.648C69.0895 225.417 65.3564 218.191 67.0024 217.907C68.6484 217.623 75.3093 223.726 75.3093 223.726C75.3093 223.726 73.5755 221.353 73.9895 221.155C74.4035 220.957 77.7595 223.393 78.2805 226.271C78.8015 229.149 85.2475 242.371 90.6555 246.61C96.0635 250.849 86.4933 254.047 81.9333 246.173Z" fill="#F09959"/>
<path d="M111.466 226.333C119.546 228.344 115.85 252.743 109.039 267.213C102.228 281.683 89.4279 269.182 84.6389 265.638C83.1583 264.571 81.8727 263.257 80.8389 261.753C82.3749 253.119 85.009 243.853 88.261 237.337C95.891 246.286 99.5158 223.357 111.466 226.333Z" fill="url(#paint7_linear_1_10314)"/>
<path d="M109.042 224.58C119.202 225.599 113.642 250.96 106.21 261.201C98.7777 271.442 88.2097 261.535 84.8667 255.636C81.5237 249.737 74.7666 239.706 74.7666 233.179C74.7666 231.955 77.2666 231.704 80.2766 231.927C83.1066 232.137 95.8916 249.736 95.8916 249.736C95.8916 249.736 100.159 223.692 109.042 224.58Z" fill="url(#paint8_linear_1_10314)"/>
<path d="M74.5291 360.433C74.9871 371.333 62.529 380.163 67.718 380.942C72.907 381.721 76.9982 378.211 79.3682 375.552C81.7382 372.893 84.3122 372.107 83.6182 369.095C82.9242 366.083 82.8791 359.731 82.1541 357.654C81.4291 355.577 74.5291 360.433 74.5291 360.433Z" fill="#0F2D5C"/>
<path d="M93.5731 188.097C82.9731 188.822 84.3221 205.257 84.3221 205.257C84.3221 205.257 93.0681 205.51 95.6761 204.757C97.5669 204.106 99.3432 203.161 100.94 201.957C100.94 201.957 102.54 208.182 106.928 208.529L111.311 208.876C111.311 208.876 114.202 197.058 111.911 191.729C107.176 180.679 97.7091 186.21 93.5731 188.097Z" fill="#0F2D5C"/>
<path d="M105.142 204.007C104.514 205.622 103.029 206.552 101.824 206.084C100.619 205.616 100.152 203.927 100.78 202.311C101.408 200.695 102.893 199.765 104.098 200.234C105.303 200.703 105.77 202.395 105.142 204.007Z" fill="#F09959"/>
<path d="M110.38 200.44C110.38 200.44 112.924 209.222 116.455 209.671C119.986 210.12 142.555 211.428 136.789 235.114C132.778 251.582 125.664 254.332 132.866 260.384C138.866 265.426 145.954 259.115 145.954 259.115C145.954 259.115 149.423 277.934 135.405 277.693C121.387 277.452 114.693 262.714 120.405 249.193C126.117 235.672 114.805 232.212 114.337 224.616C113.986 220.624 113.986 216.609 114.337 212.616L110.38 207.9V200.44Z" fill="#0F2D5C"/>
<path d="M321.98 151.285C321.98 154.08 320.87 156.76 318.894 158.737C316.918 160.713 314.237 161.823 311.442 161.823C308.648 161.823 305.967 160.713 303.991 158.737C302.014 156.76 300.904 154.08 300.904 151.285C300.904 148.49 302.014 145.81 303.991 143.834C305.967 141.857 308.648 140.747 311.442 140.747C314.237 140.747 316.918 141.857 318.894 143.834C320.87 145.81 321.98 148.49 321.98 151.285Z" fill="#F37168"/>
<path d="M311.341 147.581C311.341 147.581 307.661 144.336 305.057 147.454C301.482 151.734 311.341 157.178 311.341 157.178C311.341 157.178 321.377 151.56 317.867 147.23C315.211 143.955 311.341 147.581 311.341 147.581Z" fill="white"/>
<path d="M294.318 131.758C298.936 131.758 302.679 128.015 302.679 123.397C302.679 118.779 298.936 115.036 294.318 115.036C289.7 115.036 285.957 118.779 285.957 123.397C285.957 128.015 289.7 131.758 294.318 131.758Z" fill="#F37168"/>
<path d="M294.238 120.458C294.238 120.458 291.318 117.883 289.251 120.358C286.415 123.758 294.238 128.074 294.238 128.074C294.238 128.074 302.202 123.616 299.416 120.18C297.309 117.582 294.238 120.458 294.238 120.458Z" fill="white"/>
<path d="M313.391 102.857C318.135 102.857 321.981 99.0109 321.981 94.2668C321.981 89.5226 318.135 85.6768 313.391 85.6768C308.647 85.6768 304.801 89.5226 304.801 94.2668C304.801 99.0109 308.647 102.857 313.391 102.857Z" fill="#F37168"/>
<path d="M313.307 91.2467C313.307 91.2467 310.307 88.6018 308.184 91.1468C305.269 94.6358 313.307 99.0738 313.307 99.0738C313.307 99.0738 321.488 94.4938 318.626 90.9648C316.462 88.2918 313.307 91.2467 313.307 91.2467Z" fill="white"/>
<path d="M302.161 67.688C302.161 69.1965 301.562 70.6433 300.495 71.71C299.428 72.7767 297.982 73.376 296.473 73.376C294.965 73.376 293.518 72.7767 292.451 71.71C291.384 70.6433 290.785 69.1965 290.785 67.688C290.785 66.1794 291.384 64.7327 292.451 63.666C293.518 62.5993 294.965 62 296.473 62C297.982 62 299.428 62.5993 300.495 63.666C301.562 64.7327 302.161 66.1794 302.161 67.688Z" fill="#F37168"/>
<path d="M296.418 65.6892C296.418 65.6892 294.432 63.9372 293.025 65.6202C291.095 67.9302 296.418 70.8692 296.418 70.8692C296.418 70.8692 301.835 67.8362 299.94 65.4992C298.507 63.7322 296.418 65.6892 296.418 65.6892Z" fill="white"/>
<path d="M115.372 175.123C119.487 171.008 119.487 164.336 115.372 160.22C111.257 156.105 104.584 156.105 100.469 160.22C96.3537 164.336 96.3537 171.008 100.469 175.123C104.584 179.239 111.257 179.239 115.372 175.123Z" fill="#F37168"/>
<path d="M107.816 163.968C107.816 163.968 104.137 160.723 101.532 163.841C97.9562 168.121 107.816 173.565 107.816 173.565C107.816 173.565 117.853 167.946 114.342 163.617C111.687 160.343 107.816 163.968 107.816 163.968Z" fill="white"/>
<path d="M115.781 142.013C119.893 140.322 121.856 135.618 120.165 131.506C118.474 127.395 113.77 125.432 109.658 127.123C105.546 128.814 103.584 133.518 105.275 137.63C106.966 141.742 111.67 143.704 115.781 142.013Z" fill="#F37168"/>
<path d="M112.642 131.739C112.642 131.739 109.831 129.26 107.842 131.639C105.111 134.909 112.642 139.068 112.642 139.068C112.642 139.068 120.31 134.776 117.628 131.468C115.599 128.969 112.642 131.739 112.642 131.739Z" fill="white"/>
<path d="M89.3146 116.909C93.0702 116.909 96.1146 113.865 96.1146 110.109C96.1146 106.353 93.0702 103.309 89.3146 103.309C85.5591 103.309 82.5146 106.353 82.5146 110.109C82.5146 113.865 85.5591 116.909 89.3146 116.909Z" fill="#F37168"/>
<path d="M89.2489 107.719C89.2489 107.719 86.8737 105.625 85.1937 107.637C82.8857 110.399 89.2489 113.912 89.2489 113.912C89.2489 113.912 95.7258 110.286 93.4598 107.493C91.7458 105.38 89.2489 107.719 89.2489 107.719Z" fill="white"/>
<path d="M284.691 245.308H181.061C179.815 245.308 178.612 244.849 177.681 244.019C176.751 243.19 176.158 242.046 176.016 240.808L164.703 141.516C164.622 140.805 164.692 140.085 164.908 139.403C165.125 138.721 165.483 138.093 165.96 137.559C166.436 137.026 167.02 136.599 167.673 136.306C168.326 136.014 169.033 135.863 169.748 135.863H273.377C274.623 135.863 275.827 136.321 276.757 137.151C277.688 137.981 278.281 139.124 278.423 140.363L289.736 239.655C289.817 240.366 289.747 241.085 289.53 241.767C289.313 242.449 288.955 243.077 288.479 243.611C288.003 244.145 287.419 244.572 286.766 244.864C286.113 245.157 285.406 245.308 284.691 245.308Z" fill="#430A56"/>
<path d="M238.023 157.387C242.398 166.136 238.777 176.211 230.171 179.771C221.509 183.354 212.038 181.319 207.663 172.571C203.288 163.823 206.537 153.33 214.921 149.138C223.305 144.946 233.648 148.638 238.023 157.387Z" fill="#FFC34E"/>
<path d="M214.441 180.86C213.466 180.86 211.553 180.516 209.125 178.36C206.988 176.324 205.575 173.646 205.098 170.733C204.336 166.759 204.833 162.192 206.574 157.158C206.595 157.098 206.627 157.042 206.67 156.994C206.712 156.946 206.764 156.908 206.821 156.88C206.879 156.852 206.942 156.836 207.005 156.832C207.069 156.828 207.133 156.837 207.194 156.858C207.254 156.879 207.31 156.912 207.357 156.954C207.405 156.997 207.444 157.048 207.472 157.106C207.5 157.164 207.516 157.226 207.52 157.29C207.524 157.354 207.514 157.418 207.493 157.478C205.808 162.348 205.325 166.747 206.055 170.551C206.491 173.253 207.795 175.738 209.771 177.632C212.82 180.337 214.863 179.85 214.883 179.845C215.008 179.811 215.141 179.829 215.253 179.893C215.366 179.958 215.448 180.064 215.482 180.189C215.5 180.25 215.506 180.315 215.498 180.378C215.491 180.441 215.472 180.503 215.441 180.559C215.409 180.614 215.368 180.663 215.317 180.703C215.267 180.743 215.21 180.772 215.149 180.789C214.917 180.843 214.679 180.867 214.441 180.86Z" fill="#FFC34E"/>
<path d="M259.312 192.984C259.312 192.984 257.112 192.21 255.944 187.415C255.344 184.947 256.944 180.679 258.278 179.345C257.411 176.877 254.077 167.667 255.543 167.673C257.025 167.679 260.344 177.873 260.344 177.873C260.344 177.873 262.144 168.402 263.279 168.535C264.414 168.668 263.279 178.406 263.279 178.406C263.279 178.406 267.31 179.085 268.548 182.741C269.786 186.397 265.921 192.128 265.921 192.928C265.921 193.728 265.479 196.281 265.479 196.281L259.144 195.281L259.312 192.984Z" fill="#E38540"/>
<path d="M264.283 178.091C265.353 178.3 266.315 178.879 267.003 179.725C267.485 179.912 267.895 180.247 268.173 180.683C268.451 181.118 268.584 181.631 268.551 182.147C268.497 183.035 266.277 186.047 264.78 187.232C262.948 188.683 262.053 187.282 262.48 186.815C262.907 186.348 261.613 186.348 261.08 185.748C260.547 185.148 262.747 180.904 263.08 179.725C263.413 178.546 263.678 178.014 264.283 178.091Z" fill="#F09959"/>
<path d="M260.997 184.88C264.081 185.413 266.482 185.28 266.349 184.413C266.216 183.546 263.337 182.193 262.549 181.699C261.761 181.205 260.997 184.88 260.997 184.88Z" fill="#E38540"/>
<path d="M260.947 187.482C262.647 190.69 260.614 193.351 259.313 192.982C258.012 192.613 256.088 189.682 255.813 186.282C255.538 182.882 255.744 182.815 257.013 181.082C258.282 179.349 261.881 181.015 262.881 181.982C263.881 182.949 266.016 183.816 265.081 184.416C264.146 185.016 261.481 184.416 260.51 184.016C259.539 183.616 259.61 184.616 259.145 185.083C258.68 185.55 259.747 185.213 260.947 187.482Z" fill="#F09959"/>
<path d="M227.818 191.433C238.869 197.486 252.006 227.042 252.006 227.042C252.006 227.042 255.429 200.616 258.478 194.685C259.26 193.164 265.478 194.211 266.478 195.748C267.478 197.285 269.678 235.319 264.678 241.914C259.678 248.509 247.47 246.814 247.47 246.814L231.453 232.905L227.818 191.433Z" fill="#A8CEFF"/>
<path d="M256.948 198.875C254.284 207.303 250.877 225.499 251.748 230.434C252.619 235.369 254.548 237.504 254.548 237.504C254.548 237.504 253.081 225.299 254.081 218.495C255.081 211.691 256.948 198.875 256.948 198.875Z" fill="#93BBF0"/>
<path d="M245.637 245.222C251.265 244.637 256.037 244.108 254.876 244.108C252.276 244.108 240.202 237.145 241.203 230.368C242.204 223.591 242.337 210.159 239.003 204.222L237.88 201.746C234.28 196.822 231.669 193.546 227.818 191.433L231.45 232.902L245.637 245.222Z" fill="#93BBF0"/>
<path d="M209.51 188.364C209.51 188.364 193.67 197.215 189.978 199.097C186.286 200.979 200.322 256.226 203.444 258.597C206.566 260.968 234.044 259.004 237.178 256.021C240.312 253.038 234.778 243.883 237.485 225.554C240.192 207.225 229.226 191.399 227.817 191.434C226.408 191.469 217.217 188.367 217.217 188.367L209.51 188.364Z" fill="#A8CEFF"/>
<path d="M203.445 258.596C206.567 260.964 226.234 261.017 234.605 258.412C235.551 258.118 239.84 256.412 239.94 254.802C238.93 254.612 234.919 255.094 233.291 254.72C227.629 253.42 224.511 246.405 224.511 246.405C224.511 246.405 221.393 245.283 214.418 242.329C207.443 239.375 210.318 230.429 210.151 226.492C209.984 222.555 203.258 209.671 190.622 199.906L189.463 200.425C188.561 209.405 200.557 256.406 203.445 258.596Z" fill="#93BBF0"/>
<path d="M188.734 200.137C181.104 224.537 170.286 252.217 172.009 252.217C173.732 252.217 217.546 253.988 219.27 252.517C220.994 251.046 220.501 245.38 220.256 244.642C220.011 243.904 195.346 239.527 195.346 239.527C195.346 239.527 198.594 233.198 199.825 220.827C201.056 208.456 190.182 195.51 188.734 200.137Z" fill="#A8CEFF"/>
<path d="M215.313 167.167L209.166 189.629C209.166 189.629 219.553 205.841 222.408 204.401C225.263 202.961 220.808 191.224 220.808 189.629C220.808 188.034 225.26 171.578 225.26 171.578L215.313 167.167Z" fill="#F09959"/>
<path d="M221.025 190.773C220.918 190.399 220.846 190.016 220.812 189.628C220.812 188.033 225.264 171.577 225.264 171.577L215.313 167.166L213.279 174.599C214.561 180.522 217.214 186.062 221.025 190.773Z" fill="#E38540"/>
<path d="M238.311 166.795C239.482 173.308 238.711 181.959 232.927 184.158C227.143 186.357 220.177 182.15 217.366 174.758C214.555 167.366 216.966 159.594 222.751 157.395C228.536 155.196 236.912 159.014 238.311 166.795Z" fill="#F09959"/>
<path d="M226.111 176.652C226.111 176.652 231.052 178.552 233.77 178.514C234.821 178.576 235.875 178.501 236.907 178.292C236.907 178.292 235.03 182.055 232.638 181.82C231.18 181.644 229.798 181.068 228.646 180.156C227.494 179.244 226.617 178.031 226.111 176.652Z" fill="white"/>
<path d="M218.739 170.465C219.55 172.742 218.846 175.072 217.167 175.67C215.488 176.268 213.467 174.907 212.659 172.63C211.851 170.353 212.552 168.023 214.232 167.425C215.912 166.827 217.928 168.183 218.739 170.465Z" fill="#F09959"/>
<path d="M238.38 158.612C236.411 173.896 217.842 171.927 217.842 171.927C217.842 171.927 214.011 166.892 212.288 169.533C210.565 172.174 214.68 154.033 225.335 153.466C228.836 153.278 238.38 158.612 238.38 158.612Z" fill="#FFC34E"/>
<path d="M209.449 161.586C215.004 161.586 219.507 157.361 219.507 152.15C219.507 146.939 215.004 142.714 209.449 142.714C203.894 142.714 199.391 146.939 199.391 152.15C199.391 157.361 203.894 161.586 209.449 161.586Z" fill="#FFC34E"/>
<path d="M153.875 150.094C169.616 150.094 182.376 137.333 182.376 121.593C182.376 105.852 169.616 93.0918 153.875 93.0918C138.134 93.0918 125.374 105.852 125.374 121.593C125.374 137.333 138.134 150.094 153.875 150.094Z" fill="#0E3A82"/>
<path d="M153.238 102.82C156.938 102.31 160.119 111.486 159.864 114.42C159.609 117.354 166.746 114.038 170.188 116.587C173.63 119.136 172.61 132.387 170.188 133.282C167.766 134.177 158 134.302 154.854 132.645C153.267 131.69 151.435 131.222 149.584 131.298L147.964 117.433C149.49 116.878 150.892 116.029 152.089 114.933C154.257 113.015 153.238 102.82 153.238 102.82ZM136.798 135.32C137.689 136.085 147.758 138.506 148.268 133.408C148.778 128.31 146.229 117.478 146.229 117.478C146.229 117.478 139.229 117.124 136.799 118.364C135.864 118.84 135.906 134.553 136.797 135.318L136.798 135.32Z" fill="white"/>
<path d="M282.502 354.741C290.74 354.741 297.418 348.063 297.418 339.825C297.418 331.587 290.74 324.909 282.502 324.909C274.264 324.909 267.586 331.587 267.586 339.825C267.586 348.063 274.264 354.741 282.502 354.741Z" fill="#C1C765"/>
<path d="M275.387 347.73C273.187 334.551 283.272 334.23 283.272 334.23V330.325L291.266 338.319L283.566 346.019V341.55C283.566 341.55 279.694 341.713 278.23 343.828C276.766 345.943 275.387 347.73 275.387 347.73Z" fill="white"/>
<path d="M241.268 299.3C241.53 298.187 240.841 297.072 239.729 296.81C238.616 296.547 237.501 297.236 237.238 298.349C236.976 299.461 237.665 300.576 238.777 300.839C239.89 301.102 241.005 300.413 241.268 299.3Z" fill="white"/>
<path d="M241.268 308.617C241.53 307.504 240.841 306.389 239.729 306.127C238.616 305.864 237.501 306.553 237.238 307.666C236.976 308.778 237.665 309.893 238.777 310.156C239.89 310.418 241.005 309.729 241.268 308.617Z" fill="white"/>
<path d="M233.56 303.64C233.56 303.912 233.507 304.181 233.403 304.433C233.299 304.684 233.146 304.912 232.954 305.105C232.762 305.297 232.534 305.449 232.282 305.554C232.031 305.658 231.762 305.711 231.49 305.711C230.941 305.711 230.414 305.493 230.026 305.105C229.637 304.716 229.419 304.189 229.419 303.64C229.419 303.091 229.637 302.564 230.026 302.176C230.414 301.787 230.941 301.569 231.49 301.569C231.762 301.569 232.031 301.623 232.282 301.727C232.534 301.831 232.762 301.984 232.954 302.176C233.146 302.368 233.299 302.596 233.403 302.848C233.507 303.099 233.56 303.368 233.56 303.64Z" fill="white"/>
<path d="M239.252 308.942C239.111 308.942 238.973 308.905 238.852 308.834L231.087 304.334C230.967 304.265 230.867 304.166 230.797 304.047C230.727 303.928 230.689 303.792 230.687 303.654C230.685 303.516 230.719 303.38 230.785 303.258C230.851 303.137 230.948 303.035 231.066 302.962L238.83 298.145C239.01 298.034 239.227 297.999 239.433 298.047C239.639 298.096 239.818 298.224 239.93 298.404C240.041 298.584 240.076 298.802 240.028 299.008C239.979 299.214 239.851 299.393 239.671 299.504L233.041 303.618L239.651 307.449C239.742 307.502 239.821 307.572 239.885 307.655C239.949 307.739 239.996 307.834 240.023 307.936C240.05 308.037 240.057 308.143 240.043 308.248C240.029 308.352 239.995 308.452 239.942 308.543C239.872 308.664 239.771 308.765 239.65 308.835C239.529 308.905 239.392 308.942 239.252 308.942Z" fill="white"/>
<defs>
<linearGradient id="paint0_linear_1_10314" x1="210" y1="0" x2="210" y2="352" gradientUnits="userSpaceOnUse">
<stop stop-color="#E163E1"/>
<stop offset="1" stop-color="#741595"/>
</linearGradient>
<linearGradient id="paint1_linear_1_10314" x1="210" y1="0" x2="210" y2="352" gradientUnits="userSpaceOnUse">
<stop stop-color="white" stop-opacity="0.32"/>
<stop offset="1" stop-color="#B247DF"/>
</linearGradient>
<linearGradient id="paint2_linear_1_10314" x1="44.5" y1="20" x2="44.5" y2="68" gradientUnits="userSpaceOnUse">
<stop stop-color="#741595"/>
<stop offset="1" stop-color="#E163E1"/>
</linearGradient>
<linearGradient id="paint3_linear_1_10314" x1="44.5" y1="20" x2="44.5" y2="68" gradientUnits="userSpaceOnUse">
<stop stop-color="white" stop-opacity="0"/>
<stop offset="1" stop-color="white"/>
</linearGradient>
<linearGradient id="paint4_linear_1_10314" x1="340.951" y1="124.079" x2="30.7105" y2="271.239" gradientUnits="userSpaceOnUse">
<stop stop-color="#DB5FDD"/>
<stop offset="1" stop-color="#4C13BF"/>
</linearGradient>
<linearGradient id="paint5_linear_1_10314" x1="2565.76" y1="202.448" x2="2442.84" y2="240.847" gradientUnits="userSpaceOnUse">
<stop stop-color="#FFC34E"/>
<stop offset="1" stop-color="#FB8627"/>
</linearGradient>
<linearGradient id="paint6_linear_1_10314" x1="2546.58" y1="186.272" x2="2431.16" y2="282.579" gradientUnits="userSpaceOnUse">
<stop stop-color="#FFC34E"/>
<stop offset="1" stop-color="#FB8627"/>
</linearGradient>
<linearGradient id="paint7_linear_1_10314" x1="2569.48" y1="165.094" x2="2474.01" y2="257.148" gradientUnits="userSpaceOnUse">
<stop stop-color="#FFC34E"/>
<stop offset="1" stop-color="#FB8627"/>
</linearGradient>
<linearGradient id="paint8_linear_1_10314" x1="2563.58" y1="193.831" x2="2454.79" y2="315.003" gradientUnits="userSpaceOnUse">
<stop stop-color="#FFC34E"/>
<stop offset="1" stop-color="#FB8627"/>
</linearGradient>
</defs>
</svg>
